<svg width="96" height="96" xmlns="http://www.w3.org/2000/svg" xmlns:xlink="http://www.w3.org/1999/xlink" xml:space="preserve" overflow="hidden"><g transform="translate(-409 -113)"><path d="M488 148C488.552 148 489 147.552 489 147L489 142C489 141.608 488.771 141.251 488.414 141.089L466.414 131.089C466.284 131.03 466.143 130.999 466 131L465.456 131 464.994 126.888C464.975 126.722 464.915 126.564 464.819 126.427L457.819 116.427C457.502 115.975 456.879 115.865 456.426 116.182 456.331 116.249 456.248 116.332 456.181 116.427L449.181 126.427C449.085 126.564 449.025 126.722 449.006 126.888L448.544 131 448 131C447.857 131 447.716 131.03 447.586 131.09L425.586 141.09C425.229 141.252 425 141.608 425 142L425 147C425 147.552 425.448 148 426 148 426.552 148 427 147.552 427 147L427 143 447.2 143 445.98 153.82 425.586 163.09C425.229 163.252 425 163.608 425 164L425 169C425 169.552 425.448 170 426 170 426.552 170 427 169.552 427 169L427 165 444.724 165 444.024 171.253 430.747 204.471C430.542 204.984 430.792 205.566 431.305 205.771 431.422 205.818 431.548 205.842 431.675 205.842 431.81 205.842 431.943 205.814 432.067 205.762L456.947 195.153 481.973 205.834C482.481 206.051 483.068 205.815 483.285 205.307 483.389 205.063 483.392 204.789 483.294 204.543L469.978 171.253 469.276 165 487 165 487 169C487 169.552 487.448 170 488 170 488.552 170 489 169.552 489 169L489 164C489 163.608 488.771 163.252 488.414 163.09L468.02 153.82 466.8 143 487 143 487 147C487 147.552 487.448 148 488 148ZM450.965 127.365 456.992 118.756C456.994 118.752 457 118.75 457.004 118.752 457.006 118.753 457.007 118.754 457.008 118.756L463.035 127.365 463.443 131 450.557 131ZM463.668 133 464.568 141 449.433 141 450.333 133ZM430.662 141C430.637 141 430.635 140.991 430.662 140.981L448.217 133 448.317 133 447.417 141ZM430.662 162.981 445.72 156.135 444.949 163 430.662 163C430.637 163 430.635 162.991 430.658 162.981ZM447.845 155.171 448.217 155 465.783 155 466.159 155.171 467.039 163 446.961 163ZM468.645 173.293 472.698 183.425 459.398 177.448ZM473 185.756C473.202 185.85 473.432 185.87 473.647 185.81L473.675 185.88C473.622 185.887 473.569 185.897 473.518 185.913L456.947 192.979 440.393 185.913C440.37 185.907 440.347 185.902 440.323 185.899L440.353 185.823C440.401 185.833 440.451 185.84 440.5 185.844 440.641 185.844 440.781 185.814 440.91 185.756L456.955 178.545ZM441.332 183.374 445.347 173.328 454.515 177.448ZM433.519 202.968C433.507 202.968 433.501 202.968 433.506 202.955L439.587 187.739C439.595 187.739 439.6 187.75 439.607 187.753L454.4 194.065ZM459.496 194.068 474.3 187.753C474.335 187.733 474.368 187.711 474.4 187.687L480.536 203.026C480.536 203.039 480.536 203.045 480.522 203.039ZM467.982 171.4 456.955 176.352 446.014 171.434 446.737 165 467.263 165ZM483.338 163 469.051 163 468.28 156.135 483.342 162.981C483.365 162.991 483.363 163 483.338 163ZM465.915 153 448.085 153 449.209 143 464.791 143ZM465.68 133 465.78 133 483.339 140.981C483.362 140.991 483.36 141 483.339 141L466.579 141Z"/></g></svg>