<svg width="96" height="96" xmlns="http://www.w3.org/2000/svg" xmlns:xlink="http://www.w3.org/1999/xlink" xml:space="preserve" overflow="hidden"><g transform="translate(-556 -110)"><path d="M630.5 148.411C631.209 147.178 631.779 145.87 632.2 144.511L636.6 142.311 636.6 137.311 632.2 135.111C631.832 133.749 631.295 132.439 630.6 131.211L632.2 126.511 628.6 122.911 623.9 124.511C622.673 123.812 621.362 123.271 620 122.9L617.8 118.5 612.8 118.5 610.6 122.9C609.238 123.268 607.928 123.805 606.7 124.5L602 122.9 598.4 126.5 600 131.2C599.305 132.428 598.768 133.738 598.4 135.1L594 137.3 594 142.3 598.4 144.5C598.768 145.862 599.305 147.172 600 148.4L598.4 153.1 601.9 156.6 606.6 155C607.828 155.695 609.138 156.232 610.5 156.6L612.7 161 617.7 161 619.9 156.6C621.262 156.232 622.572 155.695 623.8 155L628.5 156.6 632.1 153.1ZM628.606 149.055 629.8 152.56 627.985 154.325 624.445 153.119 623.581 152.825 622.792 153.285C621.709 153.897 620.553 154.369 619.351 154.69L618.505 154.932 618.111 155.719 616.464 159.019 613.939 159.019 612.292 155.719 611.898 154.932 611.052 154.69C609.85 154.369 608.693 153.897 607.61 153.285L606.822 152.825 605.958 153.119 602.436 154.319 600.696 152.579 601.896 149.056 602.19 148.192 601.73 147.404C601.119 146.32 600.649 145.163 600.33 143.961L600.088 143.115 599.302 142.722 596 141.073 596 138.544 599.3 136.9 600.086 136.506 600.328 135.66C600.647 134.458 601.117 133.301 601.728 132.218L602.188 131.429 601.894 130.566 600.694 127.042 602.534 125.202 606.056 126.402 606.92 126.702 607.708 126.241C608.792 125.631 609.948 125.16 611.15 124.841L612 124.585 612.394 123.798 614.041 120.498 616.569 120.498 618.216 123.798 618.61 124.585 619.455 124.827C620.657 125.146 621.813 125.617 622.897 126.227L623.686 126.688 624.55 126.388 628.071 125.188 629.911 127.028 628.711 130.552 628.417 131.415 628.877 132.204C629.489 133.287 629.961 134.444 630.282 135.646L630.523 136.492 631.31 136.886 634.61 138.534 634.61 141.063 631.31 142.711 630.545 143.094 630.293 143.912C629.917 145.127 629.408 146.297 628.776 147.4L628.316 148.188Z"/><path d="M571.4 173.618 571.4 178.618 575.8 180.818C576.168 182.18 576.705 183.49 577.4 184.718L575.9 189.418 579.4 192.918 584.1 191.418C585.328 192.113 586.638 192.65 588 193.018L590.2 197.418 595.2 197.418 597.4 193.018C598.762 192.65 600.072 192.113 601.3 191.418L606 193.018 609.5 189.418 608 184.818C608.695 183.59 609.232 182.28 609.6 180.918L614 178.718 614 173.718 609.6 171.518C609.232 170.156 608.695 168.846 608 167.618L609.6 162.918 606 159.318 601.3 160.918C600.064 160.24 598.756 159.704 597.4 159.318L595.2 154.918 590.2 154.918 588 159.318C586.638 159.686 585.328 160.223 584.1 160.918L579.4 159.318 575.9 162.818 577.4 167.518C576.722 168.754 576.186 170.062 575.8 171.418ZM577.46 172.818 577.712 172C578.056 170.792 578.531 169.624 579.128 168.519L579.576 167.75 579.305 166.903 578.176 163.362 579.934 161.603 583.456 162.803 584.32 163.098 585.108 162.638C586.191 162.026 587.348 161.553 588.55 161.233L589.4 161 589.794 160.213 591.441 156.913 593.969 156.913 595.616 160.213 595.999 160.979 596.817 161.23C598.025 161.575 599.192 162.05 600.297 162.647L601.086 163.107 601.95 162.812 605.471 161.612 607.311 163.453 606.111 166.976 605.817 167.839 606.277 168.628C606.889 169.712 607.361 170.868 607.682 172.071L607.923 172.916 608.71 173.31 612 174.954 612 177.483 608.7 179.131 607.913 179.525 607.672 180.37C607.351 181.572 606.879 182.729 606.267 183.813L605.815 184.588 606.093 185.441 607.219 188.894 605.45 190.722 601.95 189.529 601.086 189.235 600.297 189.695C599.213 190.308 598.055 190.78 596.852 191.1L596.006 191.342 595.613 192.129 593.966 195.429 591.438 195.429 589.791 192.129 589.397 191.342 588.551 191.1C587.349 190.78 586.192 190.307 585.109 189.695L584.341 189.247 583.493 189.517 579.954 190.647 578.177 188.87 579.306 185.329 579.577 184.482 579.129 183.713C578.517 182.63 578.045 181.473 577.724 180.271L577.482 179.425 576.696 179.031 573.396 177.383 573.396 174.854 576.696 173.206Z"/><path d="M615.3 132.306C611.158 132.306 607.8 135.664 607.8 139.806 607.8 143.948 611.158 147.306 615.3 147.306 619.442 147.306 622.8 143.948 622.8 139.806 622.769 135.677 619.429 132.337 615.3 132.306ZM615.3 145.306C612.264 145.302 609.804 142.842 609.8 139.806 609.84 136.785 612.279 134.346 615.3 134.306 618.336 134.31 620.796 136.77 620.8 139.806 620.762 142.828 618.322 145.27 615.3 145.31Z"/><path d="M592.7 183.721C596.842 183.721 600.2 180.363 600.2 176.221 600.2 172.079 596.842 168.721 592.7 168.721 588.558 168.721 585.2 172.079 585.2 176.221 585.195 180.358 588.545 183.716 592.682 183.721 592.688 183.721 592.694 183.721 592.7 183.721ZM592.7 170.716C595.738 170.716 598.2 173.178 598.2 176.216 598.2 179.254 595.738 181.716 592.7 181.716 589.662 181.716 587.2 179.254 587.2 176.216 587.204 173.18 589.664 170.72 592.7 170.716Z"/></g></svg>