<svg width="96" height="96" xmlns="http://www.w3.org/2000/svg" xmlns:xlink="http://www.w3.org/1999/xlink" xml:space="preserve" overflow="hidden"><g transform="translate(-512 -192)"><path d="M573.071 250.824C574.131 248.664 576.631 243.824 578.921 241.324 580.779 239.23 582.249 236.822 583.261 234.212 584.322 231.445 584.909 228.519 585 225.557L585 224.7C585 210.893 573.807 199.7 560 199.7 546.193 199.7 535 210.893 535 224.7L535 225.56C535.091 228.521 535.679 231.447 536.74 234.213 537.752 236.823 539.222 239.231 541.08 241.325 543.37 243.815 545.87 248.667 546.93 250.825 547.253 251.475 547.916 251.886 548.641 251.886L571.36 251.886C572.086 251.886 572.749 251.474 573.071 250.824ZM571.3 249.885 548.7 249.885C547.41 247.261 544.925 242.545 542.579 239.994 540.879 238.081 539.535 235.88 538.61 233.494 537.631 230.946 537.087 228.253 537 225.525L537 224.734C536.991 212.031 547.28 201.726 559.983 201.717 572.686 201.708 582.991 211.997 583 224.7L583 225.529C582.914 228.253 582.372 230.944 581.395 233.489 580.475 235.869 579.137 238.065 577.445 239.974 575.066 242.57 572.583 247.281 571.3 249.885Z"/><path d="M571.158 257.941 549.158 257.941C548.606 257.941 548.158 258.389 548.158 258.941 548.158 259.493 548.606 259.941 549.158 259.941L571.158 259.941C571.71 259.941 572.158 259.493 572.158 258.941 572.158 258.389 571.71 257.941 571.158 257.941Z"/><path d="M572.158 267.07C572.158 266.518 571.71 266.07 571.158 266.07L549.158 266.07C548.606 266.07 548.158 266.518 548.158 267.07 548.158 267.622 548.606 268.07 549.158 268.07L571.158 268.07C571.71 268.07 572.158 267.622 572.158 267.07Z"/><path d="M565.8 275.08C565.844 274.53 565.434 274.047 564.883 274.003 564.855 274.001 564.828 274 564.8 274L555.246 274C554.694 273.998 554.245 274.444 554.243 274.997 554.243 275.025 554.244 275.053 554.246 275.081 554.498 278.271 557.288 280.653 560.478 280.401 563.318 280.176 565.574 277.921 565.798 275.081ZM560.03 278.417C558.471 278.404 557.076 277.448 556.5 276L563.561 276C562.987 277.45 561.59 278.406 560.031 278.417Z"/></g></svg>