<svg xmlns="http://www.w3.org/2000/svg" xmlns:xlink="http://www.w3.org/1999/xlink" width="268" zoomAndPan="magnify" viewBox="0 0 200.87999 30.000001" height="40" preserveAspectRatio="xMidYMid meet" version="1.0"><defs><clipPath id="b3475c0aca"><path d="M 74.0625 2.902344 L 90 2.902344 L 90 26.128906 L 74.0625 26.128906 Z M 74.0625 2.902344 " clip-rule="nonzero"/></clipPath><clipPath id="02111dc01b"><path d="M 101 2.902344 L 117.613281 2.902344 L 117.613281 26 L 101 26 Z M 101 2.902344 " clip-rule="nonzero"/></clipPath></defs><path fill="#0084d1" d="M 103.890625 14.515625 C 103.890625 15.042969 103.839844 15.5625 103.734375 16.082031 C 103.632812 16.597656 103.480469 17.097656 103.28125 17.585938 C 103.078125 18.070312 102.832031 18.53125 102.539062 18.972656 C 102.246094 19.410156 101.914062 19.8125 101.542969 20.1875 C 101.167969 20.558594 100.765625 20.890625 100.328125 21.183594 C 99.890625 21.476562 99.425781 21.722656 98.941406 21.925781 C 98.453125 22.125 97.953125 22.277344 97.4375 22.378906 C 96.917969 22.484375 96.398438 22.535156 95.871094 22.535156 C 95.34375 22.535156 94.824219 22.484375 94.308594 22.378906 C 93.792969 22.277344 93.289062 22.125 92.804688 21.925781 C 92.316406 21.722656 91.855469 21.476562 91.417969 21.183594 C 90.980469 20.890625 90.574219 20.558594 90.203125 20.1875 C 89.828125 19.8125 89.496094 19.410156 89.203125 18.972656 C 88.914062 18.53125 88.664062 18.070312 88.464844 17.585938 C 88.261719 17.097656 88.109375 16.597656 88.007812 16.082031 C 87.90625 15.5625 87.851562 15.042969 87.851562 14.515625 C 87.851562 13.988281 87.90625 13.46875 88.007812 12.953125 C 88.109375 12.433594 88.261719 11.933594 88.464844 11.449219 C 88.664062 10.960938 88.914062 10.5 89.203125 10.0625 C 89.496094 9.625 89.828125 9.21875 90.203125 8.847656 C 90.574219 8.472656 90.980469 8.140625 91.417969 7.847656 C 91.855469 7.554688 92.316406 7.308594 92.804688 7.109375 C 93.289062 6.90625 93.792969 6.753906 94.308594 6.652344 C 94.824219 6.550781 95.34375 6.496094 95.871094 6.496094 C 96.398438 6.496094 96.917969 6.550781 97.4375 6.652344 C 97.953125 6.753906 98.453125 6.90625 98.941406 7.109375 C 99.425781 7.308594 99.890625 7.554688 100.328125 7.847656 C 100.765625 8.140625 101.167969 8.472656 101.542969 8.847656 C 101.914062 9.21875 102.246094 9.625 102.539062 10.0625 C 102.832031 10.5 103.078125 10.960938 103.28125 11.449219 C 103.480469 11.933594 103.632812 12.433594 103.734375 12.953125 C 103.839844 13.46875 103.890625 13.988281 103.890625 14.515625 Z M 103.890625 14.515625 " fill-opacity="1" fill-rule="nonzero"/><g clip-path="url(#b3475c0aca)"><path fill="#0084d1" d="M 82.875 14.515625 C 82.875 9.539062 85.734375 5.113281 89.882812 2.996094 C 85.917969 4.007812 82.230469 6.035156 79.28125 8.984375 L 74.671875 13.316406 C 74.398438 13.59375 74.210938 14.054688 74.210938 14.515625 C 74.210938 14.976562 74.398438 15.4375 74.671875 15.714844 L 79.191406 20.136719 C 82.140625 23.085938 85.824219 25.113281 89.789062 26.128906 C 85.734375 23.917969 82.875 19.492188 82.875 14.515625 Z M 82.875 14.515625 " fill-opacity="1" fill-rule="nonzero"/></g><g clip-path="url(#02111dc01b)"><path fill="#0084d1" d="M 117.070312 13.316406 L 112.554688 8.894531 C 109.605469 5.945312 105.917969 3.917969 101.953125 2.902344 C 106.101562 5.113281 108.960938 9.445312 108.960938 14.425781 C 108.960938 19.402344 106.101562 23.824219 101.953125 25.945312 C 105.917969 24.929688 109.605469 22.902344 112.554688 19.953125 L 117.070312 15.53125 C 117.347656 15.253906 117.53125 14.792969 117.53125 14.332031 C 117.53125 14.054688 117.347656 13.59375 117.070312 13.316406 Z M 117.070312 13.316406 " fill-opacity="1" fill-rule="nonzero"/></g><path fill="#0084d1" d="M 95.871094 24.195312 C 90.527344 24.195312 86.195312 19.863281 86.195312 14.515625 C 86.195312 9.171875 90.527344 4.839844 95.871094 4.839844 C 101.21875 4.839844 105.550781 9.171875 105.550781 14.515625 C 105.550781 19.863281 101.21875 24.195312 95.871094 24.195312 Z M 95.871094 8.15625 C 92.371094 8.15625 89.511719 11.015625 89.511719 14.515625 C 89.511719 18.019531 92.371094 20.875 95.871094 20.875 C 99.375 20.875 102.230469 18.019531 102.230469 14.515625 C 102.230469 11.015625 99.375 8.15625 95.871094 8.15625 Z M 95.871094 8.15625 " fill-opacity="1" fill-rule="nonzero"/></svg>