<svg xmlns="http://www.w3.org/2000/svg" xmlns:xlink="http://www.w3.org/1999/xlink" width="500" zoomAndPan="magnify" viewBox="0 0 375 374.999991" height="500" preserveAspectRatio="xMidYMid meet" version="1.0"><defs><clipPath id="2e78eebf23"><path d="M 94.214844 258 L 280.964844 258 L 280.964844 280.566406 L 94.214844 280.566406 Z M 94.214844 258 " clip-rule="nonzero"/></clipPath><clipPath id="9bcbde3da3"><path d="M 94.214844 149 L 280.964844 149 L 280.964844 172 L 94.214844 172 Z M 94.214844 149 " clip-rule="nonzero"/></clipPath><clipPath id="3280fefde9"><path d="M 94.214844 94.566406 L 280.964844 94.566406 L 280.964844 157 L 94.214844 157 Z M 94.214844 94.566406 " clip-rule="nonzero"/></clipPath></defs><path fill="#c7e4ff" d="M 116.542969 174.714844 L 142.058594 174.714844 L 142.058594 254.90625 L 116.542969 254.90625 Z M 116.542969 174.714844 " fill-opacity="1" fill-rule="nonzero"/><path fill="#c7e4ff" d="M 233.183594 174.714844 L 258.699219 174.714844 L 258.699219 254.90625 L 233.183594 254.90625 Z M 233.183594 174.714844 " fill-opacity="1" fill-rule="nonzero"/><path fill="#c7e4ff" d="M 174.863281 174.714844 L 200.378906 174.714844 L 200.378906 254.90625 L 174.863281 254.90625 Z M 174.863281 174.714844 " fill-opacity="1" fill-rule="nonzero"/><path fill="#deedff" d="M 265.988281 247.617188 L 265.988281 266.867188 L 225.894531 266.867188 L 225.894531 247.617188 C 230.707031 247.617188 260.132812 247.617188 265.988281 247.617188 Z M 265.988281 247.617188 " fill-opacity="1" fill-rule="nonzero"/><path fill="#deedff" d="M 207.667969 247.617188 L 207.667969 266.867188 L 167.574219 266.867188 L 167.574219 247.617188 C 172.386719 247.617188 201.8125 247.617188 207.667969 247.617188 Z M 207.667969 247.617188 " fill-opacity="1" fill-rule="nonzero"/><path fill="#deedff" d="M 149.347656 247.617188 L 149.347656 266.867188 L 109.253906 266.867188 L 109.253906 247.617188 C 114.066406 247.617188 143.492188 247.617188 149.347656 247.617188 Z M 149.347656 247.617188 " fill-opacity="1" fill-rule="nonzero"/><path fill="#deedff" d="M 149.210938 162.863281 L 149.210938 182.007812 C 144.847656 182.007812 120.144531 182.007812 116.542969 182.007812 L 109.113281 182.007812 L 109.113281 162.863281 Z M 149.210938 162.863281 " fill-opacity="1" fill-rule="nonzero"/><path fill="#deedff" d="M 207.667969 162.863281 L 207.667969 182.007812 L 200.378906 182.007812 C 197.027344 182.007812 171.882812 182.007812 167.574219 182.007812 L 167.574219 162.863281 Z M 207.667969 162.863281 " fill-opacity="1" fill-rule="nonzero"/><path fill="#deedff" d="M 265.988281 162.863281 L 265.988281 182.007812 C 260.222656 182.007812 230.710938 182.007812 225.894531 182.007812 L 225.894531 162.863281 Z M 265.988281 162.863281 " fill-opacity="1" fill-rule="nonzero"/><path fill="#deedff" d="M 187.484375 98.398438 L 98.179688 152.847656 L 187.621094 159.15625 L 276.785156 152.847656 Z M 187.484375 98.398438 " fill-opacity="1" fill-rule="nonzero"/><path fill="#c7e4ff" d="M 276.925781 262.195312 L 276.925781 276.777344 L 98.320312 276.777344 L 98.320312 262.195312 C 116.609375 262.195312 258.066406 262.195312 276.925781 262.195312 Z M 276.925781 262.195312 " fill-opacity="1" fill-rule="nonzero"/><path fill="#c7e4ff" d="M 276.785156 152.847656 L 276.785156 167.425781 C 258.101562 167.425781 115.152344 167.425781 98.179688 167.425781 L 98.179688 152.847656 Z M 276.785156 152.847656 " fill-opacity="1" fill-rule="nonzero"/><path fill="#72bbff" d="M 198.417969 125.734375 C 198.417969 126.453125 198.347656 127.164062 198.207031 127.867188 C 198.066406 128.570312 197.859375 129.253906 197.585938 129.917969 C 197.3125 130.582031 196.972656 131.210938 196.574219 131.808594 C 196.175781 132.40625 195.722656 132.957031 195.214844 133.464844 C 194.707031 133.972656 194.15625 134.425781 193.558594 134.828125 C 192.960938 135.226562 192.332031 135.5625 191.667969 135.835938 C 191.003906 136.113281 190.320312 136.320312 189.617188 136.460938 C 188.910156 136.597656 188.199219 136.667969 187.484375 136.667969 C 186.765625 136.667969 186.054688 136.597656 185.347656 136.460938 C 184.644531 136.320312 183.960938 136.113281 183.296875 135.835938 C 182.632812 135.5625 182.003906 135.226562 181.40625 134.828125 C 180.8125 134.425781 180.257812 133.972656 179.75 133.464844 C 179.242188 132.957031 178.789062 132.40625 178.390625 131.808594 C 177.992188 131.210938 177.65625 130.582031 177.378906 129.917969 C 177.105469 129.253906 176.898438 128.570312 176.757812 127.867188 C 176.617188 127.164062 176.546875 126.453125 176.546875 125.734375 C 176.546875 125.015625 176.617188 124.304688 176.757812 123.601562 C 176.898438 122.898438 177.105469 122.214844 177.378906 121.550781 C 177.65625 120.886719 177.992188 120.257812 178.390625 119.660156 C 178.789062 119.0625 179.242188 118.511719 179.75 118.003906 C 180.257812 117.496094 180.8125 117.042969 181.40625 116.640625 C 182.003906 116.242188 182.632812 115.90625 183.296875 115.632812 C 183.960938 115.355469 184.644531 115.148438 185.347656 115.007812 C 186.054688 114.871094 186.765625 114.800781 187.484375 114.800781 C 188.199219 114.800781 188.910156 114.871094 189.617188 115.007812 C 190.320312 115.148438 191.003906 115.355469 191.667969 115.632812 C 192.332031 115.90625 192.960938 116.242188 193.558594 116.640625 C 194.15625 117.042969 194.707031 117.496094 195.214844 118.003906 C 195.722656 118.511719 196.175781 119.0625 196.574219 119.660156 C 196.972656 120.257812 197.3125 120.886719 197.585938 121.550781 C 197.859375 122.214844 198.066406 122.898438 198.207031 123.601562 C 198.347656 124.304688 198.417969 125.015625 198.417969 125.734375 Z M 198.417969 125.734375 " fill-opacity="1" fill-rule="nonzero"/><g clip-path="url(#2e78eebf23)"><path fill="#052161" d="M 276.925781 280.421875 L 98.320312 280.421875 C 96.304688 280.421875 94.675781 278.789062 94.675781 276.777344 L 94.675781 262.195312 C 94.675781 260.183594 96.304688 258.550781 98.320312 258.550781 L 276.925781 258.550781 C 278.9375 258.550781 280.570312 260.183594 280.570312 262.195312 L 280.570312 276.777344 C 280.570312 278.789062 278.9375 280.421875 276.925781 280.421875 Z M 101.964844 273.132812 L 273.28125 273.132812 L 273.28125 265.84375 L 101.964844 265.84375 Z M 101.964844 273.132812 " fill-opacity="1" fill-rule="nonzero"/></g><g clip-path="url(#9bcbde3da3)"><path fill="#052161" d="M 276.785156 171.070312 L 98.179688 171.070312 C 96.167969 171.070312 94.535156 169.441406 94.535156 167.425781 L 94.535156 152.847656 C 94.535156 150.832031 96.167969 149.203125 98.179688 149.203125 L 276.785156 149.203125 C 278.796875 149.203125 280.429688 150.832031 280.429688 152.847656 L 280.429688 167.425781 C 280.429688 169.441406 278.796875 171.070312 276.785156 171.070312 Z M 101.824219 163.78125 L 273.140625 163.78125 L 273.140625 156.492188 L 101.824219 156.492188 Z M 101.824219 163.78125 " fill-opacity="1" fill-rule="nonzero"/></g><path fill="#052161" d="M 149.351562 265.84375 L 109.253906 265.84375 C 107.242188 265.84375 105.609375 264.210938 105.609375 262.195312 L 105.609375 247.617188 C 105.609375 245.605469 107.242188 243.972656 109.253906 243.972656 L 149.351562 243.972656 C 151.363281 243.972656 152.996094 245.605469 152.996094 247.617188 L 152.996094 262.195312 C 152.996094 264.210938 151.363281 265.84375 149.351562 265.84375 Z M 112.898438 258.550781 L 145.703125 258.550781 L 145.703125 251.261719 L 112.898438 251.261719 Z M 112.898438 258.550781 " fill-opacity="1" fill-rule="nonzero"/><path fill="#052161" d="M 149.210938 185.652344 L 109.113281 185.652344 C 107.101562 185.652344 105.46875 184.019531 105.46875 182.007812 L 105.46875 167.425781 C 105.46875 165.414062 107.101562 163.78125 109.113281 163.78125 L 149.210938 163.78125 C 151.222656 163.78125 152.855469 165.414062 152.855469 167.425781 L 152.855469 182.007812 C 152.855469 184.019531 151.222656 185.652344 149.210938 185.652344 Z M 112.757812 178.363281 L 145.5625 178.363281 L 145.5625 171.070312 L 112.757812 171.070312 Z M 112.757812 178.363281 " fill-opacity="1" fill-rule="nonzero"/><path fill="#052161" d="M 265.988281 185.652344 L 225.894531 185.652344 C 223.882812 185.652344 222.25 184.019531 222.25 182.007812 L 222.25 167.425781 C 222.25 165.414062 223.882812 163.78125 225.894531 163.78125 L 265.988281 163.78125 C 268.003906 163.78125 269.636719 165.414062 269.636719 167.425781 L 269.636719 182.007812 C 269.636719 184.019531 268.003906 185.652344 265.988281 185.652344 Z M 229.539062 178.363281 L 262.34375 178.363281 L 262.34375 171.070312 L 229.539062 171.070312 Z M 229.539062 178.363281 " fill-opacity="1" fill-rule="nonzero"/><path fill="#052161" d="M 142.058594 251.261719 L 116.542969 251.261719 C 114.53125 251.261719 112.898438 249.628906 112.898438 247.617188 L 112.898438 182.007812 C 112.898438 179.992188 114.53125 178.363281 116.542969 178.363281 L 142.058594 178.363281 C 144.074219 178.363281 145.703125 179.992188 145.703125 182.007812 L 145.703125 247.617188 C 145.703125 249.628906 144.074219 251.261719 142.058594 251.261719 Z M 120.191406 243.972656 L 138.414062 243.972656 L 138.414062 185.652344 L 120.191406 185.652344 Z M 120.191406 243.972656 " fill-opacity="1" fill-rule="nonzero"/><path fill="#052161" d="M 265.988281 265.84375 L 225.894531 265.84375 C 223.882812 265.84375 222.25 264.210938 222.25 262.195312 L 222.25 247.617188 C 222.25 245.605469 223.882812 243.972656 225.894531 243.972656 L 265.988281 243.972656 C 268.003906 243.972656 269.636719 245.605469 269.636719 247.617188 L 269.636719 262.195312 C 269.636719 264.210938 268.003906 265.84375 265.988281 265.84375 Z M 229.539062 258.550781 L 262.34375 258.550781 L 262.34375 251.261719 L 229.539062 251.261719 Z M 229.539062 258.550781 " fill-opacity="1" fill-rule="nonzero"/><path fill="#052161" d="M 258.699219 251.261719 L 233.183594 251.261719 C 231.171875 251.261719 229.539062 249.628906 229.539062 247.617188 L 229.539062 182.007812 C 229.539062 179.992188 231.171875 178.363281 233.183594 178.363281 L 258.699219 178.363281 C 260.714844 178.363281 262.34375 179.992188 262.34375 182.007812 L 262.34375 247.617188 C 262.34375 249.628906 260.714844 251.261719 258.699219 251.261719 Z M 236.832031 243.972656 L 255.054688 243.972656 L 255.054688 185.652344 L 236.832031 185.652344 Z M 236.832031 243.972656 " fill-opacity="1" fill-rule="nonzero"/><path fill="#052161" d="M 207.671875 265.84375 L 167.574219 265.84375 C 165.5625 265.84375 163.929688 264.210938 163.929688 262.195312 L 163.929688 247.617188 C 163.929688 245.605469 165.5625 243.972656 167.574219 243.972656 L 207.671875 243.972656 C 209.683594 243.972656 211.316406 245.605469 211.316406 247.617188 L 211.316406 262.195312 C 211.316406 264.210938 209.683594 265.84375 207.671875 265.84375 Z M 171.21875 258.550781 L 204.023438 258.550781 L 204.023438 251.261719 L 171.21875 251.261719 Z M 171.21875 258.550781 " fill-opacity="1" fill-rule="nonzero"/><path fill="#052161" d="M 207.671875 185.652344 L 167.574219 185.652344 C 165.5625 185.652344 163.929688 184.019531 163.929688 182.007812 L 163.929688 167.425781 C 163.929688 165.414062 165.5625 163.78125 167.574219 163.78125 L 207.671875 163.78125 C 209.683594 163.78125 211.316406 165.414062 211.316406 167.425781 L 211.316406 182.007812 C 211.316406 184.019531 209.683594 185.652344 207.671875 185.652344 Z M 171.21875 178.363281 L 204.023438 178.363281 L 204.023438 171.070312 L 171.21875 171.070312 Z M 171.21875 178.363281 " fill-opacity="1" fill-rule="nonzero"/><path fill="#052161" d="M 200.378906 251.261719 L 174.863281 251.261719 C 172.851562 251.261719 171.21875 249.628906 171.21875 247.617188 L 171.21875 182.007812 C 171.21875 179.992188 172.851562 178.363281 174.863281 178.363281 L 200.378906 178.363281 C 202.394531 178.363281 204.023438 179.992188 204.023438 182.007812 L 204.023438 247.617188 C 204.023438 249.628906 202.394531 251.261719 200.378906 251.261719 Z M 178.511719 243.972656 L 196.734375 243.972656 L 196.734375 185.652344 L 178.511719 185.652344 Z M 178.511719 243.972656 " fill-opacity="1" fill-rule="nonzero"/><g clip-path="url(#3280fefde9)"><path fill="#052161" d="M 276.785156 156.492188 L 98.179688 156.492188 C 96.546875 156.492188 95.113281 155.40625 94.667969 153.832031 C 94.226562 152.257812 94.886719 150.585938 96.28125 149.734375 L 185.585938 95.285156 C 186.75 94.574219 188.214844 94.574219 189.378906 95.285156 L 278.683594 149.734375 C 280.078125 150.585938 280.734375 152.257812 280.292969 153.832031 C 279.851562 155.40625 278.417969 156.492188 276.785156 156.492188 Z M 111.160156 149.203125 L 263.804688 149.203125 L 187.480469 102.664062 Z M 111.160156 149.203125 " fill-opacity="1" fill-rule="nonzero"/></g><path fill="#052161" d="M 187.480469 140.3125 C 179.441406 140.3125 172.902344 133.773438 172.902344 125.734375 C 172.902344 117.695312 179.441406 111.152344 187.480469 111.152344 C 195.523438 111.152344 202.0625 117.695312 202.0625 125.734375 C 202.0625 133.773438 195.523438 140.3125 187.480469 140.3125 Z M 187.480469 118.445312 C 183.460938 118.445312 180.191406 121.714844 180.191406 125.734375 C 180.191406 129.753906 183.460938 133.023438 187.480469 133.023438 C 191.5 133.023438 194.773438 129.753906 194.773438 125.734375 C 194.773438 121.714844 191.5 118.445312 187.480469 118.445312 Z M 187.480469 118.445312 " fill-opacity="1" fill-rule="nonzero"/></svg>