<svg xmlns="http://www.w3.org/2000/svg" xmlns:xlink="http://www.w3.org/1999/xlink" width="268" zoomAndPan="magnify" viewBox="0 0 200.87999 30.000001" height="40" preserveAspectRatio="xMidYMid meet" version="1.0"><defs><g/><clipPath id="d6876d110c"><path d="M 45.6875 6.496094 L 57 6.496094 L 57 22.460938 L 45.6875 22.460938 Z M 45.6875 6.496094 " clip-rule="nonzero"/></clipPath><clipPath id="e66db1ed2f"><path d="M 64 6.496094 L 76 6.496094 L 76 22.460938 L 64 22.460938 Z M 64 6.496094 " clip-rule="nonzero"/></clipPath></defs><path fill="#1c98ed" d="M 66.285156 14.511719 C 66.285156 14.875 66.25 15.234375 66.175781 15.59375 C 66.105469 15.949219 66 16.296875 65.863281 16.632812 C 65.722656 16.96875 65.550781 17.285156 65.351562 17.589844 C 65.148438 17.890625 64.917969 18.171875 64.660156 18.425781 C 64.40625 18.683594 64.125 18.914062 63.824219 19.117188 C 63.519531 19.316406 63.203125 19.488281 62.867188 19.628906 C 62.53125 19.765625 62.183594 19.871094 61.828125 19.941406 C 61.472656 20.011719 61.109375 20.046875 60.746094 20.046875 C 60.382812 20.046875 60.023438 20.011719 59.667969 19.941406 C 59.3125 19.871094 58.964844 19.765625 58.628906 19.628906 C 58.292969 19.488281 57.972656 19.316406 57.671875 19.117188 C 57.371094 18.914062 57.089844 18.683594 56.832031 18.425781 C 56.574219 18.171875 56.347656 17.890625 56.144531 17.589844 C 55.941406 17.285156 55.773438 16.96875 55.632812 16.632812 C 55.492188 16.296875 55.386719 15.949219 55.316406 15.59375 C 55.246094 15.234375 55.210938 14.875 55.210938 14.511719 C 55.210938 14.148438 55.246094 13.789062 55.316406 13.433594 C 55.386719 13.074219 55.492188 12.730469 55.632812 12.394531 C 55.773438 12.058594 55.941406 11.738281 56.144531 11.4375 C 56.347656 11.132812 56.574219 10.855469 56.832031 10.597656 C 57.089844 10.339844 57.371094 10.113281 57.671875 9.910156 C 57.972656 9.707031 58.292969 9.535156 58.628906 9.398438 C 58.964844 9.257812 59.3125 9.152344 59.667969 9.082031 C 60.023438 9.011719 60.382812 8.976562 60.746094 8.976562 C 61.109375 8.976562 61.472656 9.011719 61.828125 9.082031 C 62.183594 9.152344 62.53125 9.257812 62.867188 9.398438 C 63.203125 9.535156 63.519531 9.707031 63.824219 9.910156 C 64.125 10.113281 64.40625 10.339844 64.660156 10.597656 C 64.917969 10.855469 65.148438 11.132812 65.351562 11.4375 C 65.550781 11.738281 65.722656 12.058594 65.863281 12.394531 C 66 12.730469 66.105469 13.074219 66.175781 13.433594 C 66.25 13.789062 66.285156 14.148438 66.285156 14.511719 Z M 66.285156 14.511719 " fill-opacity="1" fill-rule="nonzero"/><g clip-path="url(#d6876d110c)"><path fill="#1c98ed" d="M 51.773438 14.511719 C 51.773438 11.078125 53.746094 8.023438 56.609375 6.558594 C 53.875 7.257812 51.328125 8.660156 49.292969 10.695312 L 46.113281 13.683594 C 45.921875 13.875 45.792969 14.195312 45.792969 14.511719 C 45.792969 14.832031 45.921875 15.148438 46.113281 15.339844 L 49.230469 18.394531 C 51.265625 20.429688 53.8125 21.832031 56.546875 22.53125 C 53.746094 21.003906 51.773438 17.949219 51.773438 14.511719 Z M 51.773438 14.511719 " fill-opacity="1" fill-rule="nonzero"/></g><g clip-path="url(#e66db1ed2f)"><path fill="#1c98ed" d="M 75.382812 13.683594 L 72.265625 10.632812 C 70.230469 8.59375 67.683594 7.195312 64.945312 6.496094 C 67.8125 8.023438 69.785156 11.011719 69.785156 14.449219 C 69.785156 17.886719 67.8125 20.941406 64.945312 22.402344 C 67.683594 21.703125 70.230469 20.304688 72.265625 18.265625 L 75.382812 15.210938 C 75.574219 15.023438 75.703125 14.703125 75.703125 14.386719 C 75.703125 14.195312 75.574219 13.875 75.382812 13.683594 Z M 75.382812 13.683594 " fill-opacity="1" fill-rule="nonzero"/></g><path fill="#1c98ed" d="M 60.746094 21.195312 C 57.054688 21.195312 54.066406 18.203125 54.066406 14.511719 C 54.066406 10.820312 57.054688 7.832031 60.746094 7.832031 C 64.4375 7.832031 67.429688 10.820312 67.429688 14.511719 C 67.429688 18.203125 64.4375 21.195312 60.746094 21.195312 Z M 60.746094 10.121094 C 58.328125 10.121094 56.355469 12.09375 56.355469 14.511719 C 56.355469 16.929688 58.328125 18.902344 60.746094 18.902344 C 63.164062 18.902344 65.136719 16.929688 65.136719 14.511719 C 65.136719 12.09375 63.164062 10.121094 60.746094 10.121094 Z M 60.746094 10.121094 " fill-opacity="1" fill-rule="nonzero"/><g fill="#0084d1" fill-opacity="1"><g transform="translate(79.040233, 15.82752)"><g><path d="M 0.15625 -8.828125 L 0.15625 -11.390625 L 7.546875 -11.390625 L 7.546875 -8.828125 L 5.3125 -8.828125 L 5.3125 0 L 2.40625 0 L 2.40625 -8.828125 Z M 0.15625 -8.828125 "/></g></g></g><g fill="#0084d1" fill-opacity="1"><g transform="translate(86.404979, 15.82752)"><g><path d="M 4.90625 -6.4375 C 3.957031 -6.4375 3.484375 -5.890625 3.484375 -4.796875 L 3.484375 0 L 0.921875 0 L 0.921875 -11.390625 L 3.484375 -11.390625 L 3.484375 -7.71875 C 3.660156 -8.070312 3.945312 -8.34375 4.34375 -8.53125 C 4.738281 -8.726562 5.1875 -8.828125 5.6875 -8.828125 C 6.675781 -8.828125 7.445312 -8.523438 8 -7.921875 C 8.550781 -7.328125 8.828125 -6.476562 8.828125 -5.375 L 8.828125 0 L 6.28125 0 L 6.28125 -4.6875 C 6.28125 -5.851562 5.820312 -6.4375 4.90625 -6.4375 Z M 4.90625 -6.4375 "/></g></g></g><g fill="#0084d1" fill-opacity="1"><g transform="translate(95.814708, 15.82752)"><g><path d="M 4.984375 -1.875 C 5.328125 -1.875 5.617188 -1.9375 5.859375 -2.0625 C 6.097656 -2.195312 6.328125 -2.398438 6.546875 -2.671875 L 9.15625 -2.671875 C 8.75 -1.742188 8.175781 -1.019531 7.4375 -0.5 C 6.707031 0.0195312 5.890625 0.28125 4.984375 0.28125 C 4.171875 0.28125 3.414062 0.0820312 2.71875 -0.3125 C 2.03125 -0.71875 1.484375 -1.265625 1.078125 -1.953125 C 0.671875 -2.648438 0.46875 -3.414062 0.46875 -4.25 C 0.46875 -5.0625 0.664062 -5.816406 1.0625 -6.515625 C 1.457031 -7.222656 1.992188 -7.785156 2.671875 -8.203125 C 3.359375 -8.617188 4.113281 -8.828125 4.9375 -8.828125 C 5.78125 -8.828125 6.546875 -8.625 7.234375 -8.21875 C 7.921875 -7.8125 8.460938 -7.253906 8.859375 -6.546875 C 9.253906 -5.835938 9.453125 -5.046875 9.453125 -4.171875 C 9.453125 -3.921875 9.429688 -3.695312 9.390625 -3.5 L 2.984375 -3.5 C 3.054688 -3.007812 3.273438 -2.613281 3.640625 -2.3125 C 4.015625 -2.019531 4.460938 -1.875 4.984375 -1.875 Z M 4.9375 -6.671875 C 4.46875 -6.671875 4.054688 -6.539062 3.703125 -6.28125 C 3.347656 -6.019531 3.117188 -5.664062 3.015625 -5.21875 L 6.890625 -5.21875 C 6.785156 -5.65625 6.554688 -6.003906 6.203125 -6.265625 C 5.847656 -6.535156 5.425781 -6.671875 4.9375 -6.671875 Z M 4.9375 -6.671875 "/></g></g></g><g fill="#0084d1" fill-opacity="1"><g transform="translate(105.449598, 15.82752)"><g><path d="M 4.453125 -5.15625 C 5.441406 -5.15625 6.222656 -5.390625 6.796875 -5.859375 C 7.378906 -6.328125 7.671875 -6.953125 7.671875 -7.734375 C 7.671875 -8.160156 7.566406 -8.566406 7.359375 -8.953125 C 7.160156 -9.347656 6.816406 -9.679688 6.328125 -9.953125 C 5.847656 -10.222656 5.203125 -10.359375 4.390625 -10.359375 L 2.21875 -10.359375 L 2.21875 0 L 1.078125 0 L 1.078125 -11.390625 L 4.515625 -11.390625 C 5.453125 -11.390625 6.242188 -11.222656 6.890625 -10.890625 C 7.535156 -10.554688 8.015625 -10.109375 8.328125 -9.546875 C 8.640625 -8.992188 8.796875 -8.378906 8.796875 -7.703125 C 8.796875 -7.097656 8.648438 -6.539062 8.359375 -6.03125 C 8.078125 -5.519531 7.679688 -5.109375 7.171875 -4.796875 C 6.660156 -4.484375 6.078125 -4.300781 5.421875 -4.25 L 8.640625 0 L 7.203125 0 L 3.34375 -5.15625 Z M 4.453125 -5.15625 "/></g></g></g><g fill="#0084d1" fill-opacity="1"><g transform="translate(114.474932, 15.82752)"><g><path d="M 8.453125 -1.484375 C 8.097656 -0.953125 7.632812 -0.535156 7.0625 -0.234375 C 6.488281 0.0546875 5.859375 0.203125 5.171875 0.203125 C 4.335938 0.203125 3.570312 0.0078125 2.875 -0.375 C 2.1875 -0.769531 1.640625 -1.300781 1.234375 -1.96875 C 0.835938 -2.644531 0.640625 -3.398438 0.640625 -4.234375 C 0.640625 -5.054688 0.84375 -5.800781 1.25 -6.46875 C 1.664062 -7.144531 2.21875 -7.675781 2.90625 -8.0625 C 3.601562 -8.445312 4.359375 -8.640625 5.171875 -8.640625 C 5.867188 -8.640625 6.503906 -8.488281 7.078125 -8.1875 C 7.648438 -7.882812 8.109375 -7.46875 8.453125 -6.9375 L 8.484375 -6.9375 L 8.484375 -8.421875 L 9.5625 -8.421875 L 9.5625 0 L 8.484375 0 L 8.484375 -1.484375 Z M 8.546875 -4.203125 C 8.546875 -4.816406 8.394531 -5.390625 8.09375 -5.921875 C 7.800781 -6.453125 7.394531 -6.875 6.875 -7.1875 C 6.351562 -7.507812 5.78125 -7.671875 5.15625 -7.671875 C 4.519531 -7.671875 3.9375 -7.515625 3.40625 -7.203125 C 2.882812 -6.898438 2.472656 -6.484375 2.171875 -5.953125 C 1.867188 -5.429688 1.71875 -4.84375 1.71875 -4.1875 C 1.71875 -3.550781 1.863281 -2.96875 2.15625 -2.4375 C 2.457031 -1.914062 2.875 -1.503906 3.40625 -1.203125 C 3.9375 -0.910156 4.523438 -0.765625 5.171875 -0.765625 C 5.785156 -0.765625 6.347656 -0.914062 6.859375 -1.21875 C 7.378906 -1.53125 7.789062 -1.945312 8.09375 -2.46875 C 8.394531 -3 8.546875 -3.578125 8.546875 -4.203125 Z M 8.546875 -4.203125 "/></g></g></g><g fill="#0084d1" fill-opacity="1"><g transform="translate(124.668834, 15.82752)"><g><path d="M 1.265625 -8.421875 L 4.234375 -1.34375 L 7.25 -8.421875 L 8.40625 -8.421875 L 4.84375 0 L 3.65625 0 L 0.109375 -8.421875 Z M 1.265625 -8.421875 "/></g></g></g><g fill="#0084d1" fill-opacity="1"><g transform="translate(132.879259, 15.82752)"><g><path d="M 4.953125 -0.765625 C 5.617188 -0.765625 6.234375 -0.941406 6.796875 -1.296875 C 7.359375 -1.660156 7.75 -2.144531 7.96875 -2.75 L 9.109375 -2.75 C 8.796875 -1.863281 8.253906 -1.148438 7.484375 -0.609375 C 6.722656 -0.0664062 5.882812 0.203125 4.96875 0.203125 C 4.175781 0.203125 3.441406 0.0078125 2.765625 -0.375 C 2.097656 -0.769531 1.566406 -1.304688 1.171875 -1.984375 C 0.773438 -2.660156 0.578125 -3.398438 0.578125 -4.203125 C 0.578125 -5.003906 0.773438 -5.742188 1.171875 -6.421875 C 1.578125 -7.097656 2.113281 -7.632812 2.78125 -8.03125 C 3.457031 -8.4375 4.179688 -8.640625 4.953125 -8.640625 C 5.773438 -8.640625 6.519531 -8.425781 7.1875 -8 C 7.863281 -7.582031 8.394531 -7.023438 8.78125 -6.328125 C 9.175781 -5.640625 9.375 -4.910156 9.375 -4.140625 L 9.359375 -3.8125 L 1.6875 -3.8125 C 1.71875 -3.269531 1.890625 -2.765625 2.203125 -2.296875 C 2.515625 -1.828125 2.914062 -1.453125 3.40625 -1.171875 C 3.90625 -0.898438 4.421875 -0.765625 4.953125 -0.765625 Z M 4.953125 -7.671875 C 4.429688 -7.671875 3.9375 -7.546875 3.46875 -7.296875 C 3.007812 -7.054688 2.617188 -6.71875 2.296875 -6.28125 C 1.984375 -5.851562 1.78125 -5.351562 1.6875 -4.78125 L 8.265625 -4.78125 C 8.109375 -5.632812 7.722656 -6.328125 7.109375 -6.859375 C 6.503906 -7.398438 5.785156 -7.671875 4.953125 -7.671875 Z M 4.953125 -7.671875 "/></g></g></g><g fill="#0084d1" fill-opacity="1"><g transform="translate(142.565756, 15.82752)"><g><path d="M 4.703125 -7.671875 C 3.910156 -7.671875 3.273438 -7.394531 2.796875 -6.84375 C 2.316406 -6.300781 2.078125 -5.609375 2.078125 -4.765625 L 2.078125 0 L 1 0 L 1 -8.421875 L 2.078125 -8.421875 L 2.078125 -7.34375 L 2.109375 -7.34375 C 2.378906 -7.75 2.738281 -8.066406 3.1875 -8.296875 C 3.644531 -8.523438 4.144531 -8.640625 4.6875 -8.640625 C 5.445312 -8.640625 6.109375 -8.472656 6.671875 -8.140625 C 7.234375 -7.816406 7.660156 -7.351562 7.953125 -6.75 C 8.253906 -6.15625 8.40625 -5.46875 8.40625 -4.6875 L 8.40625 0 L 7.328125 0 L 7.328125 -4.6875 C 7.328125 -5.3125 7.210938 -5.84375 6.984375 -6.28125 C 6.765625 -6.726562 6.453125 -7.070312 6.046875 -7.3125 C 5.648438 -7.550781 5.203125 -7.671875 4.703125 -7.671875 Z M 4.703125 -7.671875 "/></g></g></g><path fill="#0084d1" d="M 79.207031 19.753906 L 151.394531 19.753906 C 151.589844 19.753906 151.777344 19.832031 151.914062 19.96875 C 152.050781 20.105469 152.128906 20.292969 152.128906 20.488281 L 152.128906 25.136719 C 152.128906 25.332031 152.050781 25.519531 151.914062 25.65625 C 151.777344 25.792969 151.589844 25.871094 151.394531 25.871094 L 79.207031 25.871094 C 78.804688 25.871094 78.476562 25.542969 78.476562 25.136719 L 78.476562 20.488281 C 78.476562 20.082031 78.804688 19.753906 79.207031 19.753906 Z M 79.207031 19.753906 " fill-opacity="1" fill-rule="nonzero"/><g fill="#ffffff" fill-opacity="1"><g transform="translate(80.038768, 24.189506)"><g><path d="M 0.3125 -2.578125 L 1.359375 -2.578125 C 1.515625 -2.578125 1.648438 -2.550781 1.765625 -2.5 C 1.890625 -2.457031 1.992188 -2.394531 2.078125 -2.3125 C 2.160156 -2.238281 2.222656 -2.144531 2.265625 -2.03125 C 2.316406 -1.925781 2.34375 -1.8125 2.34375 -1.6875 L 2.34375 -1.671875 C 2.34375 -1.523438 2.316406 -1.394531 2.265625 -1.28125 C 2.210938 -1.164062 2.132812 -1.070312 2.03125 -1 C 1.9375 -0.925781 1.828125 -0.867188 1.703125 -0.828125 C 1.578125 -0.785156 1.441406 -0.765625 1.296875 -0.765625 L 0.875 -0.765625 L 0.875 0 L 0.3125 0 Z M 1.328125 -1.28125 C 1.460938 -1.28125 1.566406 -1.316406 1.640625 -1.390625 C 1.722656 -1.460938 1.765625 -1.550781 1.765625 -1.65625 L 1.765625 -1.671875 C 1.765625 -1.796875 1.722656 -1.890625 1.640625 -1.953125 C 1.566406 -2.023438 1.457031 -2.0625 1.3125 -2.0625 L 0.875 -2.0625 L 0.875 -1.28125 Z M 1.328125 -1.28125 "/></g></g></g><g fill="#ffffff" fill-opacity="1"><g transform="translate(82.564785, 24.189506)"><g><path d="M 0.3125 -2.578125 L 2.25 -2.578125 L 2.25 -2.0625 L 0.875 -2.0625 L 0.875 -1.546875 L 2.078125 -1.546875 L 2.078125 -1.046875 L 0.875 -1.046875 L 0.875 -0.5 L 2.265625 -0.5 L 2.265625 0 L 0.3125 0 Z M 0.3125 -2.578125 "/></g></g></g><g fill="#ffffff" fill-opacity="1"><g transform="translate(85.098146, 24.189506)"><g><path d="M 0.3125 -2.578125 L 1.484375 -2.578125 C 1.804688 -2.578125 2.054688 -2.488281 2.234375 -2.3125 C 2.378906 -2.164062 2.453125 -1.96875 2.453125 -1.71875 C 2.453125 -1.507812 2.398438 -1.335938 2.296875 -1.203125 C 2.191406 -1.078125 2.0625 -0.984375 1.90625 -0.921875 L 2.53125 0 L 1.875 0 L 1.3125 -0.828125 L 0.875 -0.828125 L 0.875 0 L 0.3125 0 Z M 1.453125 -1.328125 C 1.585938 -1.328125 1.691406 -1.359375 1.765625 -1.421875 C 1.835938 -1.484375 1.875 -1.570312 1.875 -1.6875 C 1.875 -1.8125 1.832031 -1.90625 1.75 -1.96875 C 1.675781 -2.03125 1.570312 -2.0625 1.4375 -2.0625 L 0.875 -2.0625 L 0.875 -1.328125 Z M 1.453125 -1.328125 "/></g></g></g><g fill="#ffffff" fill-opacity="1"><g transform="translate(87.826098, 24.189506)"><g><path d="M 0.3125 -2.578125 L 2.265625 -2.578125 L 2.265625 -2.0625 L 0.875 -2.0625 L 0.875 -1.515625 L 2.09375 -1.515625 L 2.09375 -1 L 0.875 -1 L 0.875 0 L 0.3125 0 Z M 0.3125 -2.578125 "/></g></g></g><g fill="#ffffff" fill-opacity="1"><g transform="translate(90.308058, 24.189506)"><g><path d="M 1.5625 0.046875 C 1.363281 0.046875 1.179688 0.0078125 1.015625 -0.0625 C 0.847656 -0.132812 0.703125 -0.226562 0.578125 -0.34375 C 0.453125 -0.457031 0.351562 -0.59375 0.28125 -0.75 C 0.21875 -0.914062 0.1875 -1.09375 0.1875 -1.28125 C 0.1875 -1.46875 0.222656 -1.640625 0.296875 -1.796875 C 0.367188 -1.960938 0.460938 -2.101562 0.578125 -2.21875 C 0.703125 -2.34375 0.847656 -2.4375 1.015625 -2.5 C 1.179688 -2.570312 1.363281 -2.609375 1.5625 -2.609375 C 1.757812 -2.609375 1.941406 -2.570312 2.109375 -2.5 C 2.273438 -2.4375 2.414062 -2.34375 2.53125 -2.21875 C 2.65625 -2.101562 2.75 -1.960938 2.8125 -1.796875 C 2.882812 -1.640625 2.921875 -1.472656 2.921875 -1.296875 L 2.921875 -1.28125 C 2.921875 -1.101562 2.882812 -0.929688 2.8125 -0.765625 C 2.75 -0.609375 2.65625 -0.46875 2.53125 -0.34375 C 2.414062 -0.226562 2.273438 -0.132812 2.109375 -0.0625 C 1.941406 0.0078125 1.757812 0.046875 1.5625 0.046875 Z M 1.5625 -0.484375 C 1.675781 -0.484375 1.78125 -0.503906 1.875 -0.546875 C 1.96875 -0.585938 2.046875 -0.644531 2.109375 -0.71875 C 2.179688 -0.789062 2.234375 -0.875 2.265625 -0.96875 C 2.304688 -1.0625 2.328125 -1.164062 2.328125 -1.28125 C 2.328125 -1.394531 2.304688 -1.5 2.265625 -1.59375 C 2.234375 -1.695312 2.179688 -1.785156 2.109375 -1.859375 C 2.046875 -1.929688 1.960938 -1.988281 1.859375 -2.03125 C 1.765625 -2.070312 1.664062 -2.09375 1.5625 -2.09375 C 1.445312 -2.09375 1.34375 -2.070312 1.25 -2.03125 C 1.15625 -1.988281 1.070312 -1.929688 1 -1.859375 C 0.9375 -1.785156 0.882812 -1.695312 0.84375 -1.59375 C 0.800781 -1.5 0.78125 -1.398438 0.78125 -1.296875 L 0.78125 -1.28125 C 0.78125 -1.175781 0.800781 -1.070312 0.84375 -0.96875 C 0.882812 -0.875 0.9375 -0.789062 1 -0.71875 C 1.070312 -0.644531 1.15625 -0.585938 1.25 -0.546875 C 1.34375 -0.503906 1.445312 -0.484375 1.5625 -0.484375 Z M 1.5625 -0.484375 "/></g></g></g><g fill="#ffffff" fill-opacity="1"><g transform="translate(93.502296, 24.189506)"><g><path d="M 0.3125 -2.578125 L 1.484375 -2.578125 C 1.804688 -2.578125 2.054688 -2.488281 2.234375 -2.3125 C 2.378906 -2.164062 2.453125 -1.96875 2.453125 -1.71875 C 2.453125 -1.507812 2.398438 -1.335938 2.296875 -1.203125 C 2.191406 -1.078125 2.0625 -0.984375 1.90625 -0.921875 L 2.53125 0 L 1.875 0 L 1.3125 -0.828125 L 0.875 -0.828125 L 0.875 0 L 0.3125 0 Z M 1.453125 -1.328125 C 1.585938 -1.328125 1.691406 -1.359375 1.765625 -1.421875 C 1.835938 -1.484375 1.875 -1.570312 1.875 -1.6875 C 1.875 -1.8125 1.832031 -1.90625 1.75 -1.96875 C 1.675781 -2.03125 1.570312 -2.0625 1.4375 -2.0625 L 0.875 -2.0625 L 0.875 -1.328125 Z M 1.453125 -1.328125 "/></g></g></g><g fill="#ffffff" fill-opacity="1"><g transform="translate(96.230247, 24.189506)"><g><path d="M 0.3125 -2.578125 L 0.921875 -2.578125 L 1.59375 -1.484375 L 2.265625 -2.578125 L 2.875 -2.578125 L 2.875 0 L 2.3125 0 L 2.3125 -1.671875 L 1.59375 -0.578125 L 1.578125 -0.578125 L 0.859375 -1.671875 L 0.859375 0 L 0.3125 0 Z M 0.3125 -2.578125 "/></g></g></g><g fill="#ffffff" fill-opacity="1"><g transform="translate(99.490574, 24.189506)"><g><path d="M 1.1875 -2.59375 L 1.71875 -2.59375 L 2.8125 0 L 2.21875 0 L 1.984375 -0.578125 L 0.90625 -0.578125 L 0.671875 0 L 0.09375 0 Z M 1.78125 -1.078125 L 1.4375 -1.90625 L 1.109375 -1.078125 Z M 1.78125 -1.078125 "/></g></g></g><g fill="#ffffff" fill-opacity="1"><g transform="translate(102.464521, 24.189506)"><g><path d="M 0.3125 -2.578125 L 0.828125 -2.578125 L 2.03125 -0.984375 L 2.03125 -2.578125 L 2.59375 -2.578125 L 2.59375 0 L 2.109375 0 L 0.859375 -1.640625 L 0.859375 0 L 0.3125 0 Z M 0.3125 -2.578125 "/></g></g></g><g fill="#ffffff" fill-opacity="1"><g transform="translate(105.438469, 24.189506)"><g><path d="M 1.515625 0.046875 C 1.328125 0.046875 1.148438 0.015625 0.984375 -0.046875 C 0.828125 -0.117188 0.6875 -0.210938 0.5625 -0.328125 C 0.445312 -0.453125 0.351562 -0.59375 0.28125 -0.75 C 0.21875 -0.914062 0.1875 -1.09375 0.1875 -1.28125 C 0.1875 -1.46875 0.21875 -1.640625 0.28125 -1.796875 C 0.351562 -1.960938 0.445312 -2.101562 0.5625 -2.21875 C 0.6875 -2.34375 0.828125 -2.4375 0.984375 -2.5 C 1.148438 -2.570312 1.332031 -2.609375 1.53125 -2.609375 C 1.65625 -2.609375 1.765625 -2.597656 1.859375 -2.578125 C 1.960938 -2.566406 2.050781 -2.539062 2.125 -2.5 C 2.207031 -2.46875 2.28125 -2.425781 2.34375 -2.375 C 2.414062 -2.332031 2.484375 -2.28125 2.546875 -2.21875 L 2.1875 -1.796875 C 2.082031 -1.890625 1.976562 -1.960938 1.875 -2.015625 C 1.769531 -2.066406 1.65625 -2.09375 1.53125 -2.09375 C 1.425781 -2.09375 1.328125 -2.070312 1.234375 -2.03125 C 1.140625 -1.988281 1.054688 -1.929688 0.984375 -1.859375 C 0.921875 -1.785156 0.867188 -1.695312 0.828125 -1.59375 C 0.796875 -1.5 0.78125 -1.398438 0.78125 -1.296875 L 0.78125 -1.28125 C 0.78125 -1.175781 0.796875 -1.070312 0.828125 -0.96875 C 0.867188 -0.875 0.921875 -0.789062 0.984375 -0.71875 C 1.054688 -0.644531 1.132812 -0.585938 1.21875 -0.546875 C 1.3125 -0.503906 1.414062 -0.484375 1.53125 -0.484375 C 1.675781 -0.484375 1.800781 -0.507812 1.90625 -0.5625 C 2.007812 -0.613281 2.109375 -0.6875 2.203125 -0.78125 L 2.5625 -0.421875 C 2.5 -0.347656 2.429688 -0.28125 2.359375 -0.21875 C 2.285156 -0.164062 2.207031 -0.117188 2.125 -0.078125 C 2.039062 -0.0351562 1.945312 -0.00390625 1.84375 0.015625 C 1.75 0.0351562 1.640625 0.046875 1.515625 0.046875 Z M 1.515625 0.046875 "/></g></g></g><g fill="#ffffff" fill-opacity="1"><g transform="translate(108.221495, 24.189506)"><g><path d="M 0.3125 -2.578125 L 2.25 -2.578125 L 2.25 -2.0625 L 0.875 -2.0625 L 0.875 -1.546875 L 2.078125 -1.546875 L 2.078125 -1.046875 L 0.875 -1.046875 L 0.875 -0.5 L 2.265625 -0.5 L 2.265625 0 L 0.3125 0 Z M 0.3125 -2.578125 "/></g></g></g><g fill="#ffffff" fill-opacity="1"><g transform="translate(110.754855, 24.189506)"><g/></g></g><g fill="#ffffff" fill-opacity="1"><g transform="translate(111.929745, 24.189506)"><g><path d="M 0.3125 -2.578125 L 0.921875 -2.578125 L 1.59375 -1.484375 L 2.265625 -2.578125 L 2.875 -2.578125 L 2.875 0 L 2.3125 0 L 2.3125 -1.671875 L 1.59375 -0.578125 L 1.578125 -0.578125 L 0.859375 -1.671875 L 0.859375 0 L 0.3125 0 Z M 0.3125 -2.578125 "/></g></g></g><g fill="#ffffff" fill-opacity="1"><g transform="translate(115.190072, 24.189506)"><g><path d="M 1.5625 0.046875 C 1.363281 0.046875 1.179688 0.0078125 1.015625 -0.0625 C 0.847656 -0.132812 0.703125 -0.226562 0.578125 -0.34375 C 0.453125 -0.457031 0.351562 -0.59375 0.28125 -0.75 C 0.21875 -0.914062 0.1875 -1.09375 0.1875 -1.28125 C 0.1875 -1.46875 0.222656 -1.640625 0.296875 -1.796875 C 0.367188 -1.960938 0.460938 -2.101562 0.578125 -2.21875 C 0.703125 -2.34375 0.847656 -2.4375 1.015625 -2.5 C 1.179688 -2.570312 1.363281 -2.609375 1.5625 -2.609375 C 1.757812 -2.609375 1.941406 -2.570312 2.109375 -2.5 C 2.273438 -2.4375 2.414062 -2.34375 2.53125 -2.21875 C 2.65625 -2.101562 2.75 -1.960938 2.8125 -1.796875 C 2.882812 -1.640625 2.921875 -1.472656 2.921875 -1.296875 L 2.921875 -1.28125 C 2.921875 -1.101562 2.882812 -0.929688 2.8125 -0.765625 C 2.75 -0.609375 2.65625 -0.46875 2.53125 -0.34375 C 2.414062 -0.226562 2.273438 -0.132812 2.109375 -0.0625 C 1.941406 0.0078125 1.757812 0.046875 1.5625 0.046875 Z M 1.5625 -0.484375 C 1.675781 -0.484375 1.78125 -0.503906 1.875 -0.546875 C 1.96875 -0.585938 2.046875 -0.644531 2.109375 -0.71875 C 2.179688 -0.789062 2.234375 -0.875 2.265625 -0.96875 C 2.304688 -1.0625 2.328125 -1.164062 2.328125 -1.28125 C 2.328125 -1.394531 2.304688 -1.5 2.265625 -1.59375 C 2.234375 -1.695312 2.179688 -1.785156 2.109375 -1.859375 C 2.046875 -1.929688 1.960938 -1.988281 1.859375 -2.03125 C 1.765625 -2.070312 1.664062 -2.09375 1.5625 -2.09375 C 1.445312 -2.09375 1.34375 -2.070312 1.25 -2.03125 C 1.15625 -1.988281 1.070312 -1.929688 1 -1.859375 C 0.9375 -1.785156 0.882812 -1.695312 0.84375 -1.59375 C 0.800781 -1.5 0.78125 -1.398438 0.78125 -1.296875 L 0.78125 -1.28125 C 0.78125 -1.175781 0.800781 -1.070312 0.84375 -0.96875 C 0.882812 -0.875 0.9375 -0.789062 1 -0.71875 C 1.070312 -0.644531 1.15625 -0.585938 1.25 -0.546875 C 1.34375 -0.503906 1.445312 -0.484375 1.5625 -0.484375 Z M 1.5625 -0.484375 "/></g></g></g><g fill="#ffffff" fill-opacity="1"><g transform="translate(118.384311, 24.189506)"><g><path d="M 0.3125 -2.578125 L 0.828125 -2.578125 L 2.03125 -0.984375 L 2.03125 -2.578125 L 2.59375 -2.578125 L 2.59375 0 L 2.109375 0 L 0.859375 -1.640625 L 0.859375 0 L 0.3125 0 Z M 0.3125 -2.578125 "/></g></g></g><g fill="#ffffff" fill-opacity="1"><g transform="translate(121.358258, 24.189506)"><g><path d="M 0.328125 -2.578125 L 0.90625 -2.578125 L 0.90625 0 L 0.328125 0 Z M 0.328125 -2.578125 "/></g></g></g><g fill="#ffffff" fill-opacity="1"><g transform="translate(122.665327, 24.189506)"><g><path d="M 0.90625 -2.046875 L 0.125 -2.046875 L 0.125 -2.578125 L 2.25 -2.578125 L 2.25 -2.046875 L 1.46875 -2.046875 L 1.46875 0 L 0.90625 0 Z M 0.90625 -2.046875 "/></g></g></g><g fill="#ffffff" fill-opacity="1"><g transform="translate(125.117919, 24.189506)"><g><path d="M 1.5625 0.046875 C 1.363281 0.046875 1.179688 0.0078125 1.015625 -0.0625 C 0.847656 -0.132812 0.703125 -0.226562 0.578125 -0.34375 C 0.453125 -0.457031 0.351562 -0.59375 0.28125 -0.75 C 0.21875 -0.914062 0.1875 -1.09375 0.1875 -1.28125 C 0.1875 -1.46875 0.222656 -1.640625 0.296875 -1.796875 C 0.367188 -1.960938 0.460938 -2.101562 0.578125 -2.21875 C 0.703125 -2.34375 0.847656 -2.4375 1.015625 -2.5 C 1.179688 -2.570312 1.363281 -2.609375 1.5625 -2.609375 C 1.757812 -2.609375 1.941406 -2.570312 2.109375 -2.5 C 2.273438 -2.4375 2.414062 -2.34375 2.53125 -2.21875 C 2.65625 -2.101562 2.75 -1.960938 2.8125 -1.796875 C 2.882812 -1.640625 2.921875 -1.472656 2.921875 -1.296875 L 2.921875 -1.28125 C 2.921875 -1.101562 2.882812 -0.929688 2.8125 -0.765625 C 2.75 -0.609375 2.65625 -0.46875 2.53125 -0.34375 C 2.414062 -0.226562 2.273438 -0.132812 2.109375 -0.0625 C 1.941406 0.0078125 1.757812 0.046875 1.5625 0.046875 Z M 1.5625 -0.484375 C 1.675781 -0.484375 1.78125 -0.503906 1.875 -0.546875 C 1.96875 -0.585938 2.046875 -0.644531 2.109375 -0.71875 C 2.179688 -0.789062 2.234375 -0.875 2.265625 -0.96875 C 2.304688 -1.0625 2.328125 -1.164062 2.328125 -1.28125 C 2.328125 -1.394531 2.304688 -1.5 2.265625 -1.59375 C 2.234375 -1.695312 2.179688 -1.785156 2.109375 -1.859375 C 2.046875 -1.929688 1.960938 -1.988281 1.859375 -2.03125 C 1.765625 -2.070312 1.664062 -2.09375 1.5625 -2.09375 C 1.445312 -2.09375 1.34375 -2.070312 1.25 -2.03125 C 1.15625 -1.988281 1.070312 -1.929688 1 -1.859375 C 0.9375 -1.785156 0.882812 -1.695312 0.84375 -1.59375 C 0.800781 -1.5 0.78125 -1.398438 0.78125 -1.296875 L 0.78125 -1.28125 C 0.78125 -1.175781 0.800781 -1.070312 0.84375 -0.96875 C 0.882812 -0.875 0.9375 -0.789062 1 -0.71875 C 1.070312 -0.644531 1.15625 -0.585938 1.25 -0.546875 C 1.34375 -0.503906 1.445312 -0.484375 1.5625 -0.484375 Z M 1.5625 -0.484375 "/></g></g></g><g fill="#ffffff" fill-opacity="1"><g transform="translate(128.31216, 24.189506)"><g><path d="M 0.3125 -2.578125 L 1.484375 -2.578125 C 1.804688 -2.578125 2.054688 -2.488281 2.234375 -2.3125 C 2.378906 -2.164062 2.453125 -1.96875 2.453125 -1.71875 C 2.453125 -1.507812 2.398438 -1.335938 2.296875 -1.203125 C 2.191406 -1.078125 2.0625 -0.984375 1.90625 -0.921875 L 2.53125 0 L 1.875 0 L 1.3125 -0.828125 L 0.875 -0.828125 L 0.875 0 L 0.3125 0 Z M 1.453125 -1.328125 C 1.585938 -1.328125 1.691406 -1.359375 1.765625 -1.421875 C 1.835938 -1.484375 1.875 -1.570312 1.875 -1.6875 C 1.875 -1.8125 1.832031 -1.90625 1.75 -1.96875 C 1.675781 -2.03125 1.570312 -2.0625 1.4375 -2.0625 L 0.875 -2.0625 L 0.875 -1.328125 Z M 1.453125 -1.328125 "/></g></g></g><g fill="#ffffff" fill-opacity="1"><g transform="translate(131.040113, 24.189506)"><g><path d="M 0.328125 -2.578125 L 0.90625 -2.578125 L 0.90625 0 L 0.328125 0 Z M 0.328125 -2.578125 "/></g></g></g><g fill="#ffffff" fill-opacity="1"><g transform="translate(132.347182, 24.189506)"><g><path d="M 0.3125 -2.578125 L 0.828125 -2.578125 L 2.03125 -0.984375 L 2.03125 -2.578125 L 2.59375 -2.578125 L 2.59375 0 L 2.109375 0 L 0.859375 -1.640625 L 0.859375 0 L 0.3125 0 Z M 0.3125 -2.578125 "/></g></g></g><g fill="#ffffff" fill-opacity="1"><g transform="translate(135.321132, 24.189506)"><g><path d="M 1.546875 0.046875 C 1.347656 0.046875 1.164062 0.015625 1 -0.046875 C 0.832031 -0.117188 0.6875 -0.210938 0.5625 -0.328125 C 0.445312 -0.441406 0.351562 -0.578125 0.28125 -0.734375 C 0.21875 -0.898438 0.1875 -1.082031 0.1875 -1.28125 C 0.1875 -1.46875 0.21875 -1.640625 0.28125 -1.796875 C 0.351562 -1.960938 0.445312 -2.101562 0.5625 -2.21875 C 0.6875 -2.34375 0.832031 -2.4375 1 -2.5 C 1.164062 -2.570312 1.347656 -2.609375 1.546875 -2.609375 C 1.660156 -2.609375 1.765625 -2.597656 1.859375 -2.578125 C 1.953125 -2.566406 2.035156 -2.546875 2.109375 -2.515625 C 2.191406 -2.492188 2.269531 -2.457031 2.34375 -2.40625 C 2.414062 -2.363281 2.484375 -2.316406 2.546875 -2.265625 L 2.203125 -1.828125 C 2.148438 -1.867188 2.097656 -1.90625 2.046875 -1.9375 C 1.992188 -1.96875 1.941406 -1.992188 1.890625 -2.015625 C 1.835938 -2.046875 1.78125 -2.066406 1.71875 -2.078125 C 1.664062 -2.085938 1.601562 -2.09375 1.53125 -2.09375 C 1.425781 -2.09375 1.328125 -2.070312 1.234375 -2.03125 C 1.148438 -1.988281 1.070312 -1.929688 1 -1.859375 C 0.9375 -1.785156 0.882812 -1.695312 0.84375 -1.59375 C 0.800781 -1.5 0.78125 -1.398438 0.78125 -1.296875 L 0.78125 -1.28125 C 0.78125 -1.164062 0.800781 -1.054688 0.84375 -0.953125 C 0.882812 -0.859375 0.9375 -0.773438 1 -0.703125 C 1.070312 -0.628906 1.15625 -0.570312 1.25 -0.53125 C 1.34375 -0.488281 1.445312 -0.46875 1.5625 -0.46875 C 1.769531 -0.46875 1.945312 -0.519531 2.09375 -0.625 L 2.09375 -0.984375 L 1.53125 -0.984375 L 1.53125 -1.484375 L 2.640625 -1.484375 L 2.640625 -0.359375 C 2.515625 -0.242188 2.359375 -0.144531 2.171875 -0.0625 C 1.984375 0.0078125 1.773438 0.046875 1.546875 0.046875 Z M 1.546875 0.046875 "/></g></g></g><g fill="#ffffff" fill-opacity="1"><g transform="translate(138.273051, 24.189506)"><g/></g></g><g fill="#ffffff" fill-opacity="1"><g transform="translate(139.447943, 24.189506)"><g><path d="M 0.90625 -2.046875 L 0.125 -2.046875 L 0.125 -2.578125 L 2.25 -2.578125 L 2.25 -2.046875 L 1.46875 -2.046875 L 1.46875 0 L 0.90625 0 Z M 0.90625 -2.046875 "/></g></g></g><g fill="#ffffff" fill-opacity="1"><g transform="translate(141.900535, 24.189506)"><g><path d="M 1.5625 0.046875 C 1.363281 0.046875 1.179688 0.0078125 1.015625 -0.0625 C 0.847656 -0.132812 0.703125 -0.226562 0.578125 -0.34375 C 0.453125 -0.457031 0.351562 -0.59375 0.28125 -0.75 C 0.21875 -0.914062 0.1875 -1.09375 0.1875 -1.28125 C 0.1875 -1.46875 0.222656 -1.640625 0.296875 -1.796875 C 0.367188 -1.960938 0.460938 -2.101562 0.578125 -2.21875 C 0.703125 -2.34375 0.847656 -2.4375 1.015625 -2.5 C 1.179688 -2.570312 1.363281 -2.609375 1.5625 -2.609375 C 1.757812 -2.609375 1.941406 -2.570312 2.109375 -2.5 C 2.273438 -2.4375 2.414062 -2.34375 2.53125 -2.21875 C 2.65625 -2.101562 2.75 -1.960938 2.8125 -1.796875 C 2.882812 -1.640625 2.921875 -1.472656 2.921875 -1.296875 L 2.921875 -1.28125 C 2.921875 -1.101562 2.882812 -0.929688 2.8125 -0.765625 C 2.75 -0.609375 2.65625 -0.46875 2.53125 -0.34375 C 2.414062 -0.226562 2.273438 -0.132812 2.109375 -0.0625 C 1.941406 0.0078125 1.757812 0.046875 1.5625 0.046875 Z M 1.5625 -0.484375 C 1.675781 -0.484375 1.78125 -0.503906 1.875 -0.546875 C 1.96875 -0.585938 2.046875 -0.644531 2.109375 -0.71875 C 2.179688 -0.789062 2.234375 -0.875 2.265625 -0.96875 C 2.304688 -1.0625 2.328125 -1.164062 2.328125 -1.28125 C 2.328125 -1.394531 2.304688 -1.5 2.265625 -1.59375 C 2.234375 -1.695312 2.179688 -1.785156 2.109375 -1.859375 C 2.046875 -1.929688 1.960938 -1.988281 1.859375 -2.03125 C 1.765625 -2.070312 1.664062 -2.09375 1.5625 -2.09375 C 1.445312 -2.09375 1.34375 -2.070312 1.25 -2.03125 C 1.15625 -1.988281 1.070312 -1.929688 1 -1.859375 C 0.9375 -1.785156 0.882812 -1.695312 0.84375 -1.59375 C 0.800781 -1.5 0.78125 -1.398438 0.78125 -1.296875 L 0.78125 -1.28125 C 0.78125 -1.175781 0.800781 -1.070312 0.84375 -0.96875 C 0.882812 -0.875 0.9375 -0.789062 1 -0.71875 C 1.070312 -0.644531 1.15625 -0.585938 1.25 -0.546875 C 1.34375 -0.503906 1.445312 -0.484375 1.5625 -0.484375 Z M 1.5625 -0.484375 "/></g></g></g><g fill="#ffffff" fill-opacity="1"><g transform="translate(145.094776, 24.189506)"><g><path d="M 1.5625 0.046875 C 1.363281 0.046875 1.179688 0.0078125 1.015625 -0.0625 C 0.847656 -0.132812 0.703125 -0.226562 0.578125 -0.34375 C 0.453125 -0.457031 0.351562 -0.59375 0.28125 -0.75 C 0.21875 -0.914062 0.1875 -1.09375 0.1875 -1.28125 C 0.1875 -1.46875 0.222656 -1.640625 0.296875 -1.796875 C 0.367188 -1.960938 0.460938 -2.101562 0.578125 -2.21875 C 0.703125 -2.34375 0.847656 -2.4375 1.015625 -2.5 C 1.179688 -2.570312 1.363281 -2.609375 1.5625 -2.609375 C 1.757812 -2.609375 1.941406 -2.570312 2.109375 -2.5 C 2.273438 -2.4375 2.414062 -2.34375 2.53125 -2.21875 C 2.65625 -2.101562 2.75 -1.960938 2.8125 -1.796875 C 2.882812 -1.640625 2.921875 -1.472656 2.921875 -1.296875 L 2.921875 -1.28125 C 2.921875 -1.101562 2.882812 -0.929688 2.8125 -0.765625 C 2.75 -0.609375 2.65625 -0.46875 2.53125 -0.34375 C 2.414062 -0.226562 2.273438 -0.132812 2.109375 -0.0625 C 1.941406 0.0078125 1.757812 0.046875 1.5625 0.046875 Z M 1.5625 -0.484375 C 1.675781 -0.484375 1.78125 -0.503906 1.875 -0.546875 C 1.96875 -0.585938 2.046875 -0.644531 2.109375 -0.71875 C 2.179688 -0.789062 2.234375 -0.875 2.265625 -0.96875 C 2.304688 -1.0625 2.328125 -1.164062 2.328125 -1.28125 C 2.328125 -1.394531 2.304688 -1.5 2.265625 -1.59375 C 2.234375 -1.695312 2.179688 -1.785156 2.109375 -1.859375 C 2.046875 -1.929688 1.960938 -1.988281 1.859375 -2.03125 C 1.765625 -2.070312 1.664062 -2.09375 1.5625 -2.09375 C 1.445312 -2.09375 1.34375 -2.070312 1.25 -2.03125 C 1.15625 -1.988281 1.070312 -1.929688 1 -1.859375 C 0.9375 -1.785156 0.882812 -1.695312 0.84375 -1.59375 C 0.800781 -1.5 0.78125 -1.398438 0.78125 -1.296875 L 0.78125 -1.28125 C 0.78125 -1.175781 0.800781 -1.070312 0.84375 -0.96875 C 0.882812 -0.875 0.9375 -0.789062 1 -0.71875 C 1.070312 -0.644531 1.15625 -0.585938 1.25 -0.546875 C 1.34375 -0.503906 1.445312 -0.484375 1.5625 -0.484375 Z M 1.5625 -0.484375 "/></g></g></g><g fill="#ffffff" fill-opacity="1"><g transform="translate(148.289017, 24.189506)"><g><path d="M 0.3125 -2.578125 L 0.875 -2.578125 L 0.875 -0.515625 L 2.15625 -0.515625 L 2.15625 0 L 0.3125 0 Z M 0.3125 -2.578125 "/></g></g></g></svg>