<svg xmlns="http://www.w3.org/2000/svg" xmlns:xlink="http://www.w3.org/1999/xlink" width="268" zoomAndPan="magnify" viewBox="0 0 200.87999 30.000001" height="40" preserveAspectRatio="xMidYMid meet" version="1.0"><defs><g/><clipPath id="363f3f2e05"><path d="M 24.402344 3.875 L 39 3.875 L 39 24.921875 L 24.402344 24.921875 Z M 24.402344 3.875 " clip-rule="nonzero"/></clipPath><clipPath id="2f3240571e"><path d="M 49 3.875 L 64.324219 3.875 L 64.324219 24.921875 L 49 24.921875 Z M 49 3.875 " clip-rule="nonzero"/></clipPath></defs><path fill="#0084d1" d="M 51.730469 14.511719 C 51.730469 14.992188 51.683594 15.472656 51.589844 15.945312 C 51.496094 16.417969 51.355469 16.875 51.171875 17.320312 C 50.988281 17.765625 50.761719 18.191406 50.492188 18.589844 C 50.226562 18.992188 49.921875 19.363281 49.582031 19.703125 C 49.238281 20.046875 48.867188 20.351562 48.46875 20.617188 C 48.066406 20.886719 47.644531 21.113281 47.199219 21.296875 C 46.75 21.480469 46.292969 21.621094 45.820312 21.714844 C 45.347656 21.808594 44.867188 21.855469 44.386719 21.855469 C 43.902344 21.855469 43.425781 21.808594 42.953125 21.714844 C 42.480469 21.621094 42.019531 21.480469 41.574219 21.296875 C 41.128906 21.113281 40.707031 20.886719 40.304688 20.617188 C 39.90625 20.351562 39.535156 20.046875 39.191406 19.703125 C 38.851562 19.363281 38.546875 18.992188 38.28125 18.589844 C 38.011719 18.191406 37.785156 17.765625 37.601562 17.320312 C 37.417969 16.875 37.277344 16.417969 37.183594 15.945312 C 37.089844 15.472656 37.042969 14.992188 37.042969 14.511719 C 37.042969 14.027344 37.089844 13.550781 37.183594 13.078125 C 37.277344 12.605469 37.417969 12.144531 37.601562 11.699219 C 37.785156 11.253906 38.011719 10.832031 38.28125 10.429688 C 38.546875 10.027344 38.851562 9.65625 39.191406 9.316406 C 39.535156 8.976562 39.90625 8.671875 40.304688 8.402344 C 40.707031 8.136719 41.128906 7.910156 41.574219 7.726562 C 42.019531 7.539062 42.480469 7.402344 42.953125 7.308594 C 43.425781 7.210938 43.902344 7.164062 44.386719 7.164062 C 44.867188 7.164062 45.347656 7.210938 45.820312 7.308594 C 46.292969 7.402344 46.75 7.539062 47.199219 7.726562 C 47.644531 7.910156 48.066406 8.136719 48.46875 8.402344 C 48.867188 8.671875 49.238281 8.976562 49.582031 9.316406 C 49.921875 9.65625 50.226562 10.027344 50.492188 10.429688 C 50.761719 10.832031 50.988281 11.253906 51.171875 11.699219 C 51.355469 12.144531 51.496094 12.605469 51.589844 13.078125 C 51.683594 13.550781 51.730469 14.027344 51.730469 14.511719 Z M 51.730469 14.511719 " fill-opacity="1" fill-rule="nonzero"/><g clip-path="url(#363f3f2e05)"><path fill="#0084d1" d="M 32.484375 14.511719 C 32.484375 9.953125 35.101562 5.898438 38.898438 3.957031 C 35.269531 4.886719 31.890625 6.742188 29.191406 9.445312 L 24.96875 13.414062 C 24.714844 13.667969 24.546875 14.089844 24.546875 14.511719 C 24.546875 14.933594 24.714844 15.355469 24.96875 15.609375 L 29.105469 19.660156 C 31.808594 22.363281 35.183594 24.21875 38.8125 25.148438 C 35.101562 23.121094 32.484375 19.070312 32.484375 14.511719 Z M 32.484375 14.511719 " fill-opacity="1" fill-rule="nonzero"/></g><g clip-path="url(#2f3240571e)"><path fill="#0084d1" d="M 63.804688 13.414062 L 59.667969 9.359375 C 56.964844 6.660156 53.589844 4.800781 49.957031 3.875 C 53.757812 5.898438 56.375 9.867188 56.375 14.425781 C 56.375 18.984375 53.757812 23.039062 49.957031 24.980469 C 53.589844 24.050781 56.964844 22.195312 59.667969 19.492188 L 63.804688 15.441406 C 64.058594 15.1875 64.226562 14.765625 64.226562 14.34375 C 64.226562 14.089844 64.058594 13.667969 63.804688 13.414062 Z M 63.804688 13.414062 " fill-opacity="1" fill-rule="nonzero"/></g><path fill="#0084d1" d="M 44.386719 23.375 C 39.488281 23.375 35.523438 19.40625 35.523438 14.511719 C 35.523438 9.613281 39.488281 5.644531 44.386719 5.644531 C 49.28125 5.644531 53.25 9.613281 53.25 14.511719 C 53.25 19.40625 49.28125 23.375 44.386719 23.375 Z M 44.386719 8.683594 C 41.179688 8.683594 38.5625 11.300781 38.5625 14.511719 C 38.5625 17.71875 41.179688 20.335938 44.386719 20.335938 C 47.59375 20.335938 50.210938 17.71875 50.210938 14.511719 C 50.210938 11.300781 47.59375 8.683594 44.386719 8.683594 Z M 44.386719 8.683594 " fill-opacity="1" fill-rule="nonzero"/><g fill="#0084d1" fill-opacity="1"><g transform="translate(76.946799, 15.286073)"><g><path d="M 0.203125 -11.71875 L 0.203125 -15.09375 L 10 -15.09375 L 10 -11.71875 L 7.046875 -11.71875 L 7.046875 0 L 3.1875 0 L 3.1875 -11.71875 Z M 0.203125 -11.71875 "/></g></g></g><g fill="#0084d1" fill-opacity="1"><g transform="translate(86.718425, 15.286073)"><g><path d="M 6.515625 -8.53125 C 5.242188 -8.53125 4.609375 -7.804688 4.609375 -6.359375 L 4.609375 0 L 1.21875 0 L 1.21875 -15.09375 L 4.609375 -15.09375 L 4.609375 -10.25 C 4.859375 -10.707031 5.242188 -11.066406 5.765625 -11.328125 C 6.285156 -11.585938 6.878906 -11.71875 7.546875 -11.71875 C 8.859375 -11.71875 9.878906 -11.316406 10.609375 -10.515625 C 11.347656 -9.722656 11.71875 -8.59375 11.71875 -7.125 L 11.71875 0 L 8.328125 0 L 8.328125 -6.21875 C 8.328125 -7.757812 7.722656 -8.53125 6.515625 -8.53125 Z M 6.515625 -8.53125 "/></g></g></g><g fill="#0084d1" fill-opacity="1"><g transform="translate(99.203357, 15.286073)"><g><path d="M 6.609375 -2.484375 C 7.054688 -2.484375 7.441406 -2.566406 7.765625 -2.734375 C 8.085938 -2.910156 8.390625 -3.179688 8.671875 -3.546875 L 12.140625 -3.546875 C 11.597656 -2.304688 10.835938 -1.34375 9.859375 -0.65625 C 8.890625 0.03125 7.804688 0.375 6.609375 0.375 C 5.535156 0.375 4.539062 0.109375 3.625 -0.421875 C 2.707031 -0.953125 1.972656 -1.675781 1.421875 -2.59375 C 0.878906 -3.519531 0.609375 -4.53125 0.609375 -5.625 C 0.609375 -6.707031 0.875 -7.710938 1.40625 -8.640625 C 1.9375 -9.578125 2.65625 -10.320312 3.5625 -10.875 C 4.46875 -11.4375 5.460938 -11.71875 6.546875 -11.71875 C 7.660156 -11.71875 8.671875 -11.441406 9.578125 -10.890625 C 10.492188 -10.347656 11.210938 -9.609375 11.734375 -8.671875 C 12.265625 -7.734375 12.53125 -6.6875 12.53125 -5.53125 C 12.53125 -5.207031 12.503906 -4.90625 12.453125 -4.625 L 3.953125 -4.625 C 4.054688 -3.988281 4.351562 -3.472656 4.84375 -3.078125 C 5.332031 -2.679688 5.921875 -2.484375 6.609375 -2.484375 Z M 6.546875 -8.859375 C 5.921875 -8.859375 5.375 -8.679688 4.90625 -8.328125 C 4.4375 -7.984375 4.132812 -7.515625 4 -6.921875 L 9.140625 -6.921875 C 9.003906 -7.503906 8.703125 -7.972656 8.234375 -8.328125 C 7.765625 -8.679688 7.203125 -8.859375 6.546875 -8.859375 Z M 6.546875 -8.859375 "/></g></g></g><g fill="#0084d1" fill-opacity="1"><g transform="translate(111.987036, 15.286073)"><g><path d="M 5.890625 -6.84375 C 7.210938 -6.84375 8.253906 -7.148438 9.015625 -7.765625 C 9.773438 -8.378906 10.15625 -9.210938 10.15625 -10.265625 C 10.15625 -10.816406 10.019531 -11.351562 9.75 -11.875 C 9.488281 -12.394531 9.035156 -12.832031 8.390625 -13.1875 C 7.742188 -13.550781 6.882812 -13.734375 5.8125 -13.734375 L 2.9375 -13.734375 L 2.9375 0 L 1.421875 0 L 1.421875 -15.09375 L 5.984375 -15.09375 C 7.234375 -15.09375 8.285156 -14.875 9.140625 -14.4375 C 9.992188 -14 10.628906 -13.40625 11.046875 -12.65625 C 11.460938 -11.914062 11.671875 -11.101562 11.671875 -10.21875 C 11.671875 -9.414062 11.476562 -8.675781 11.09375 -8 C 10.71875 -7.320312 10.1875 -6.773438 9.5 -6.359375 C 8.820312 -5.941406 8.050781 -5.695312 7.1875 -5.625 L 11.453125 0 L 9.546875 0 L 4.421875 -6.84375 Z M 5.890625 -6.84375 "/></g></g></g><g fill="#0084d1" fill-opacity="1"><g transform="translate(123.961949, 15.286073)"><g><path d="M 11.203125 -1.953125 C 10.742188 -1.265625 10.128906 -0.722656 9.359375 -0.328125 C 8.597656 0.0664062 7.765625 0.265625 6.859375 0.265625 C 5.753906 0.265625 4.742188 0.0078125 3.828125 -0.5 C 2.910156 -1.019531 2.1875 -1.722656 1.65625 -2.609375 C 1.125 -3.503906 0.859375 -4.503906 0.859375 -5.609375 C 0.859375 -6.703125 1.128906 -7.691406 1.671875 -8.578125 C 2.210938 -9.472656 2.941406 -10.175781 3.859375 -10.6875 C 4.785156 -11.195312 5.785156 -11.453125 6.859375 -11.453125 C 7.785156 -11.453125 8.628906 -11.253906 9.390625 -10.859375 C 10.148438 -10.460938 10.753906 -9.910156 11.203125 -9.203125 L 11.25 -9.203125 L 11.25 -11.15625 L 12.671875 -11.15625 L 12.671875 0 L 11.25 0 L 11.25 -1.953125 Z M 11.328125 -5.578125 C 11.328125 -6.390625 11.128906 -7.148438 10.734375 -7.859375 C 10.335938 -8.566406 9.796875 -9.125 9.109375 -9.53125 C 8.421875 -9.945312 7.664062 -10.15625 6.84375 -10.15625 C 6 -10.15625 5.226562 -9.953125 4.53125 -9.546875 C 3.832031 -9.148438 3.28125 -8.601562 2.875 -7.90625 C 2.476562 -7.207031 2.28125 -6.421875 2.28125 -5.546875 C 2.28125 -4.703125 2.476562 -3.929688 2.875 -3.234375 C 3.269531 -2.546875 3.816406 -2.003906 4.515625 -1.609375 C 5.222656 -1.210938 6.003906 -1.015625 6.859375 -1.015625 C 7.671875 -1.015625 8.414062 -1.21875 9.09375 -1.625 C 9.78125 -2.039062 10.320312 -2.59375 10.71875 -3.28125 C 11.125 -3.976562 11.328125 -4.742188 11.328125 -5.578125 Z M 11.328125 -5.578125 "/></g></g></g><g fill="#0084d1" fill-opacity="1"><g transform="translate(137.487331, 15.286073)"><g><path d="M 1.671875 -11.15625 L 5.609375 -1.78125 L 9.609375 -11.15625 L 11.140625 -11.15625 L 6.421875 0 L 4.859375 0 L 0.140625 -11.15625 Z M 1.671875 -11.15625 "/></g></g></g><g fill="#0084d1" fill-opacity="1"><g transform="translate(148.381012, 15.286073)"><g><path d="M 6.578125 -1.015625 C 7.453125 -1.015625 8.257812 -1.253906 9 -1.734375 C 9.75 -2.210938 10.273438 -2.851562 10.578125 -3.65625 L 12.078125 -3.65625 C 11.660156 -2.46875 10.941406 -1.515625 9.921875 -0.796875 C 8.910156 -0.0859375 7.800781 0.265625 6.59375 0.265625 C 5.539062 0.265625 4.566406 0.0078125 3.671875 -0.5 C 2.785156 -1.019531 2.082031 -1.726562 1.5625 -2.625 C 1.039062 -3.53125 0.78125 -4.515625 0.78125 -5.578125 C 0.78125 -6.628906 1.039062 -7.601562 1.5625 -8.5 C 2.09375 -9.40625 2.804688 -10.125 3.703125 -10.65625 C 4.597656 -11.1875 5.554688 -11.453125 6.578125 -11.453125 C 7.660156 -11.453125 8.644531 -11.171875 9.53125 -10.609375 C 10.425781 -10.054688 11.128906 -9.316406 11.640625 -8.390625 C 12.160156 -7.472656 12.421875 -6.503906 12.421875 -5.484375 L 12.40625 -5.0625 L 2.25 -5.0625 C 2.289062 -4.34375 2.515625 -3.671875 2.921875 -3.046875 C 3.335938 -2.429688 3.875 -1.9375 4.53125 -1.5625 C 5.1875 -1.195312 5.867188 -1.015625 6.578125 -1.015625 Z M 6.578125 -10.15625 C 5.878906 -10.15625 5.222656 -9.992188 4.609375 -9.671875 C 3.992188 -9.359375 3.472656 -8.910156 3.046875 -8.328125 C 2.628906 -7.753906 2.363281 -7.09375 2.25 -6.34375 L 10.953125 -6.34375 C 10.753906 -7.476562 10.25 -8.394531 9.4375 -9.09375 C 8.625 -9.800781 7.671875 -10.15625 6.578125 -10.15625 Z M 6.578125 -10.15625 "/></g></g></g><g fill="#0084d1" fill-opacity="1"><g transform="translate(161.233164, 15.286073)"><g><path d="M 6.25 -10.15625 C 5.1875 -10.15625 4.335938 -9.796875 3.703125 -9.078125 C 3.066406 -8.359375 2.75 -7.441406 2.75 -6.328125 L 2.75 0 L 1.328125 0 L 1.328125 -11.15625 L 2.75 -11.15625 L 2.75 -9.734375 L 2.796875 -9.734375 C 3.148438 -10.273438 3.628906 -10.695312 4.234375 -11 C 4.835938 -11.300781 5.5 -11.453125 6.21875 -11.453125 C 7.226562 -11.453125 8.101562 -11.234375 8.84375 -10.796875 C 9.582031 -10.359375 10.148438 -9.742188 10.546875 -8.953125 C 10.941406 -8.171875 11.140625 -7.257812 11.140625 -6.21875 L 11.140625 0 L 9.71875 0 L 9.71875 -6.21875 C 9.71875 -7.039062 9.566406 -7.742188 9.265625 -8.328125 C 8.960938 -8.921875 8.546875 -9.375 8.015625 -9.6875 C 7.484375 -10 6.894531 -10.15625 6.25 -10.15625 Z M 6.25 -10.15625 "/></g></g></g><path fill="#0084d1" d="M 77.171875 20.496094 L 172.949219 20.496094 C 173.207031 20.496094 173.453125 20.597656 173.636719 20.78125 C 173.820312 20.964844 173.921875 21.210938 173.921875 21.46875 L 173.921875 27.636719 C 173.921875 27.894531 173.820312 28.144531 173.636719 28.328125 C 173.453125 28.507812 173.207031 28.613281 172.949219 28.613281 L 77.171875 28.613281 C 76.632812 28.613281 76.195312 28.175781 76.195312 27.636719 L 76.195312 21.46875 C 76.195312 20.933594 76.632812 20.496094 77.171875 20.496094 Z M 77.171875 20.496094 " fill-opacity="1" fill-rule="nonzero"/><g fill="#ffffff" fill-opacity="1"><g transform="translate(78.271656, 26.380849)"><g><path d="M 0.40625 -3.40625 L 1.796875 -3.40625 C 2.003906 -3.40625 2.1875 -3.375 2.34375 -3.3125 C 2.507812 -3.257812 2.648438 -3.179688 2.765625 -3.078125 C 2.878906 -2.984375 2.960938 -2.863281 3.015625 -2.71875 C 3.078125 -2.570312 3.109375 -2.410156 3.109375 -2.234375 L 3.109375 -2.21875 C 3.109375 -2.019531 3.070312 -1.847656 3 -1.703125 C 2.925781 -1.554688 2.828125 -1.429688 2.703125 -1.328125 C 2.578125 -1.222656 2.429688 -1.144531 2.265625 -1.09375 C 2.097656 -1.050781 1.921875 -1.03125 1.734375 -1.03125 L 1.15625 -1.03125 L 1.15625 0 L 0.40625 0 Z M 1.75 -1.6875 C 1.9375 -1.6875 2.082031 -1.734375 2.1875 -1.828125 C 2.289062 -1.929688 2.34375 -2.054688 2.34375 -2.203125 L 2.34375 -2.21875 C 2.34375 -2.382812 2.285156 -2.507812 2.171875 -2.59375 C 2.066406 -2.6875 1.921875 -2.734375 1.734375 -2.734375 L 1.15625 -2.734375 L 1.15625 -1.6875 Z M 1.75 -1.6875 "/></g></g></g><g fill="#ffffff" fill-opacity="1"><g transform="translate(81.623204, 26.380849)"><g><path d="M 0.40625 -3.40625 L 2.984375 -3.40625 L 2.984375 -2.75 L 1.15625 -2.75 L 1.15625 -2.046875 L 2.765625 -2.046875 L 2.765625 -1.390625 L 1.15625 -1.390625 L 1.15625 -0.671875 L 3.015625 -0.671875 L 3.015625 0 L 0.40625 0 Z M 0.40625 -3.40625 "/></g></g></g><g fill="#ffffff" fill-opacity="1"><g transform="translate(84.984495, 26.380849)"><g><path d="M 0.40625 -3.40625 L 1.96875 -3.40625 C 2.40625 -3.40625 2.738281 -3.289062 2.96875 -3.0625 C 3.15625 -2.875 3.25 -2.613281 3.25 -2.28125 C 3.25 -2 3.179688 -1.769531 3.046875 -1.59375 C 2.921875 -1.425781 2.75 -1.300781 2.53125 -1.21875 L 3.359375 0 L 2.484375 0 L 1.75 -1.09375 L 1.15625 -1.09375 L 1.15625 0 L 0.40625 0 Z M 1.921875 -1.75 C 2.109375 -1.75 2.25 -1.789062 2.34375 -1.875 C 2.445312 -1.96875 2.5 -2.085938 2.5 -2.234375 L 2.5 -2.25 C 2.5 -2.40625 2.445312 -2.523438 2.34375 -2.609375 C 2.238281 -2.691406 2.09375 -2.734375 1.90625 -2.734375 L 1.15625 -2.734375 L 1.15625 -1.75 Z M 1.921875 -1.75 "/></g></g></g><g fill="#ffffff" fill-opacity="1"><g transform="translate(88.603972, 26.380849)"><g><path d="M 0.40625 -3.40625 L 3.015625 -3.40625 L 3.015625 -2.734375 L 1.15625 -2.734375 L 1.15625 -2 L 2.78125 -2 L 2.78125 -1.328125 L 1.15625 -1.328125 L 1.15625 0 L 0.40625 0 Z M 0.40625 -3.40625 "/></g></g></g><g fill="#ffffff" fill-opacity="1"><g transform="translate(91.897064, 26.380849)"><g><path d="M 2.0625 0.0625 C 1.800781 0.0625 1.5625 0.015625 1.34375 -0.078125 C 1.125 -0.171875 0.929688 -0.296875 0.765625 -0.453125 C 0.609375 -0.609375 0.484375 -0.789062 0.390625 -1 C 0.304688 -1.21875 0.265625 -1.453125 0.265625 -1.703125 C 0.265625 -1.953125 0.304688 -2.179688 0.390625 -2.390625 C 0.484375 -2.597656 0.609375 -2.78125 0.765625 -2.9375 C 0.929688 -3.101562 1.125 -3.234375 1.34375 -3.328125 C 1.570312 -3.421875 1.816406 -3.46875 2.078125 -3.46875 C 2.335938 -3.46875 2.578125 -3.421875 2.796875 -3.328125 C 3.023438 -3.234375 3.21875 -3.109375 3.375 -2.953125 C 3.539062 -2.796875 3.664062 -2.609375 3.75 -2.390625 C 3.84375 -2.179688 3.890625 -1.957031 3.890625 -1.71875 L 3.890625 -1.703125 C 3.890625 -1.460938 3.84375 -1.234375 3.75 -1.015625 C 3.65625 -0.804688 3.523438 -0.617188 3.359375 -0.453125 C 3.203125 -0.296875 3.015625 -0.171875 2.796875 -0.078125 C 2.578125 0.015625 2.332031 0.0625 2.0625 0.0625 Z M 2.078125 -0.640625 C 2.222656 -0.640625 2.359375 -0.664062 2.484375 -0.71875 C 2.617188 -0.769531 2.726562 -0.84375 2.8125 -0.9375 C 2.90625 -1.039062 2.972656 -1.15625 3.015625 -1.28125 C 3.066406 -1.414062 3.09375 -1.554688 3.09375 -1.703125 C 3.09375 -1.847656 3.066406 -1.984375 3.015625 -2.109375 C 2.972656 -2.242188 2.90625 -2.359375 2.8125 -2.453125 C 2.71875 -2.554688 2.609375 -2.632812 2.484375 -2.6875 C 2.359375 -2.75 2.21875 -2.78125 2.0625 -2.78125 C 1.914062 -2.78125 1.78125 -2.75 1.65625 -2.6875 C 1.53125 -2.632812 1.421875 -2.5625 1.328125 -2.46875 C 1.234375 -2.375 1.160156 -2.257812 1.109375 -2.125 C 1.066406 -2 1.046875 -1.863281 1.046875 -1.71875 L 1.046875 -1.703125 C 1.046875 -1.554688 1.066406 -1.414062 1.109375 -1.28125 C 1.160156 -1.15625 1.234375 -1.039062 1.328125 -0.9375 C 1.421875 -0.84375 1.53125 -0.769531 1.65625 -0.71875 C 1.78125 -0.664062 1.921875 -0.640625 2.078125 -0.640625 Z M 2.078125 -0.640625 "/></g></g></g><g fill="#ffffff" fill-opacity="1"><g transform="translate(96.135215, 26.380849)"><g><path d="M 0.40625 -3.40625 L 1.96875 -3.40625 C 2.40625 -3.40625 2.738281 -3.289062 2.96875 -3.0625 C 3.15625 -2.875 3.25 -2.613281 3.25 -2.28125 C 3.25 -2 3.179688 -1.769531 3.046875 -1.59375 C 2.921875 -1.425781 2.75 -1.300781 2.53125 -1.21875 L 3.359375 0 L 2.484375 0 L 1.75 -1.09375 L 1.15625 -1.09375 L 1.15625 0 L 0.40625 0 Z M 1.921875 -1.75 C 2.109375 -1.75 2.25 -1.789062 2.34375 -1.875 C 2.445312 -1.96875 2.5 -2.085938 2.5 -2.234375 L 2.5 -2.25 C 2.5 -2.40625 2.445312 -2.523438 2.34375 -2.609375 C 2.238281 -2.691406 2.09375 -2.734375 1.90625 -2.734375 L 1.15625 -2.734375 L 1.15625 -1.75 Z M 1.921875 -1.75 "/></g></g></g><g fill="#ffffff" fill-opacity="1"><g transform="translate(99.754691, 26.380849)"><g><path d="M 0.40625 -3.40625 L 1.21875 -3.40625 L 2.109375 -1.96875 L 3.015625 -3.40625 L 3.828125 -3.40625 L 3.828125 0 L 3.078125 0 L 3.078125 -2.234375 L 2.109375 -0.765625 L 2.09375 -0.765625 L 1.140625 -2.21875 L 1.140625 0 L 0.40625 0 Z M 0.40625 -3.40625 "/></g></g></g><g fill="#ffffff" fill-opacity="1"><g transform="translate(104.080529, 26.380849)"><g><path d="M 1.578125 -3.4375 L 2.265625 -3.4375 L 3.734375 0 L 2.953125 0 L 2.640625 -0.765625 L 1.1875 -0.765625 L 0.875 0 L 0.109375 0 Z M 2.375 -1.421875 L 1.921875 -2.53125 L 1.46875 -1.421875 Z M 2.375 -1.421875 "/></g></g></g><g fill="#ffffff" fill-opacity="1"><g transform="translate(108.026395, 26.380849)"><g><path d="M 0.40625 -3.40625 L 1.109375 -3.40625 L 2.703125 -1.3125 L 2.703125 -3.40625 L 3.4375 -3.40625 L 3.4375 0 L 2.796875 0 L 1.15625 -2.171875 L 1.15625 0 L 0.40625 0 Z M 0.40625 -3.40625 "/></g></g></g><g fill="#ffffff" fill-opacity="1"><g transform="translate(111.972262, 26.380849)"><g><path d="M 2.015625 0.0625 C 1.765625 0.0625 1.53125 0.015625 1.3125 -0.078125 C 1.09375 -0.171875 0.90625 -0.296875 0.75 -0.453125 C 0.59375 -0.609375 0.472656 -0.789062 0.390625 -1 C 0.304688 -1.21875 0.265625 -1.453125 0.265625 -1.703125 C 0.265625 -1.953125 0.304688 -2.179688 0.390625 -2.390625 C 0.472656 -2.597656 0.59375 -2.78125 0.75 -2.9375 C 0.90625 -3.101562 1.09375 -3.234375 1.3125 -3.328125 C 1.53125 -3.421875 1.769531 -3.46875 2.03125 -3.46875 C 2.195312 -3.46875 2.34375 -3.453125 2.46875 -3.421875 C 2.601562 -3.398438 2.722656 -3.363281 2.828125 -3.3125 C 2.941406 -3.269531 3.039062 -3.21875 3.125 -3.15625 C 3.21875 -3.09375 3.304688 -3.019531 3.390625 -2.9375 L 2.90625 -2.390625 C 2.769531 -2.515625 2.632812 -2.609375 2.5 -2.671875 C 2.363281 -2.742188 2.207031 -2.78125 2.03125 -2.78125 C 1.882812 -2.78125 1.75 -2.75 1.625 -2.6875 C 1.507812 -2.632812 1.40625 -2.5625 1.3125 -2.46875 C 1.226562 -2.375 1.160156 -2.257812 1.109375 -2.125 C 1.066406 -2 1.046875 -1.863281 1.046875 -1.71875 L 1.046875 -1.703125 C 1.046875 -1.554688 1.066406 -1.414062 1.109375 -1.28125 C 1.160156 -1.15625 1.226562 -1.039062 1.3125 -0.9375 C 1.40625 -0.84375 1.507812 -0.769531 1.625 -0.71875 C 1.75 -0.664062 1.882812 -0.640625 2.03125 -0.640625 C 2.226562 -0.640625 2.394531 -0.671875 2.53125 -0.734375 C 2.664062 -0.804688 2.800781 -0.90625 2.9375 -1.03125 L 3.40625 -0.546875 C 3.320312 -0.453125 3.234375 -0.367188 3.140625 -0.296875 C 3.046875 -0.222656 2.941406 -0.160156 2.828125 -0.109375 C 2.710938 -0.0546875 2.585938 -0.015625 2.453125 0.015625 C 2.316406 0.046875 2.171875 0.0625 2.015625 0.0625 Z M 2.015625 0.0625 "/></g></g></g><g fill="#ffffff" fill-opacity="1"><g transform="translate(115.664812, 26.380849)"><g><path d="M 0.40625 -3.40625 L 2.984375 -3.40625 L 2.984375 -2.75 L 1.15625 -2.75 L 1.15625 -2.046875 L 2.765625 -2.046875 L 2.765625 -1.390625 L 1.15625 -1.390625 L 1.15625 -0.671875 L 3.015625 -0.671875 L 3.015625 0 L 0.40625 0 Z M 0.40625 -3.40625 "/></g></g></g><g fill="#ffffff" fill-opacity="1"><g transform="translate(119.026103, 26.380849)"><g/></g></g><g fill="#ffffff" fill-opacity="1"><g transform="translate(120.58496, 26.380849)"><g><path d="M 0.40625 -3.40625 L 1.21875 -3.40625 L 2.109375 -1.96875 L 3.015625 -3.40625 L 3.828125 -3.40625 L 3.828125 0 L 3.078125 0 L 3.078125 -2.234375 L 2.109375 -0.765625 L 2.09375 -0.765625 L 1.140625 -2.21875 L 1.140625 0 L 0.40625 0 Z M 0.40625 -3.40625 "/></g></g></g><g fill="#ffffff" fill-opacity="1"><g transform="translate(124.910798, 26.380849)"><g><path d="M 2.0625 0.0625 C 1.800781 0.0625 1.5625 0.015625 1.34375 -0.078125 C 1.125 -0.171875 0.929688 -0.296875 0.765625 -0.453125 C 0.609375 -0.609375 0.484375 -0.789062 0.390625 -1 C 0.304688 -1.21875 0.265625 -1.453125 0.265625 -1.703125 C 0.265625 -1.953125 0.304688 -2.179688 0.390625 -2.390625 C 0.484375 -2.597656 0.609375 -2.78125 0.765625 -2.9375 C 0.929688 -3.101562 1.125 -3.234375 1.34375 -3.328125 C 1.570312 -3.421875 1.816406 -3.46875 2.078125 -3.46875 C 2.335938 -3.46875 2.578125 -3.421875 2.796875 -3.328125 C 3.023438 -3.234375 3.21875 -3.109375 3.375 -2.953125 C 3.539062 -2.796875 3.664062 -2.609375 3.75 -2.390625 C 3.84375 -2.179688 3.890625 -1.957031 3.890625 -1.71875 L 3.890625 -1.703125 C 3.890625 -1.460938 3.84375 -1.234375 3.75 -1.015625 C 3.65625 -0.804688 3.523438 -0.617188 3.359375 -0.453125 C 3.203125 -0.296875 3.015625 -0.171875 2.796875 -0.078125 C 2.578125 0.015625 2.332031 0.0625 2.0625 0.0625 Z M 2.078125 -0.640625 C 2.222656 -0.640625 2.359375 -0.664062 2.484375 -0.71875 C 2.617188 -0.769531 2.726562 -0.84375 2.8125 -0.9375 C 2.90625 -1.039062 2.972656 -1.15625 3.015625 -1.28125 C 3.066406 -1.414062 3.09375 -1.554688 3.09375 -1.703125 C 3.09375 -1.847656 3.066406 -1.984375 3.015625 -2.109375 C 2.972656 -2.242188 2.90625 -2.359375 2.8125 -2.453125 C 2.71875 -2.554688 2.609375 -2.632812 2.484375 -2.6875 C 2.359375 -2.75 2.21875 -2.78125 2.0625 -2.78125 C 1.914062 -2.78125 1.78125 -2.75 1.65625 -2.6875 C 1.53125 -2.632812 1.421875 -2.5625 1.328125 -2.46875 C 1.234375 -2.375 1.160156 -2.257812 1.109375 -2.125 C 1.066406 -2 1.046875 -1.863281 1.046875 -1.71875 L 1.046875 -1.703125 C 1.046875 -1.554688 1.066406 -1.414062 1.109375 -1.28125 C 1.160156 -1.15625 1.234375 -1.039062 1.328125 -0.9375 C 1.421875 -0.84375 1.53125 -0.769531 1.65625 -0.71875 C 1.78125 -0.664062 1.921875 -0.640625 2.078125 -0.640625 Z M 2.078125 -0.640625 "/></g></g></g><g fill="#ffffff" fill-opacity="1"><g transform="translate(129.148949, 26.380849)"><g><path d="M 0.40625 -3.40625 L 1.109375 -3.40625 L 2.703125 -1.3125 L 2.703125 -3.40625 L 3.4375 -3.40625 L 3.4375 0 L 2.796875 0 L 1.15625 -2.171875 L 1.15625 0 L 0.40625 0 Z M 0.40625 -3.40625 "/></g></g></g><g fill="#ffffff" fill-opacity="1"><g transform="translate(133.094816, 26.380849)"><g><path d="M 0.4375 -3.40625 L 1.1875 -3.40625 L 1.1875 0 L 0.4375 0 Z M 0.4375 -3.40625 "/></g></g></g><g fill="#ffffff" fill-opacity="1"><g transform="translate(134.82905, 26.380849)"><g><path d="M 1.203125 -2.71875 L 0.171875 -2.71875 L 0.171875 -3.40625 L 3 -3.40625 L 3 -2.71875 L 1.953125 -2.71875 L 1.953125 0 L 1.203125 0 Z M 1.203125 -2.71875 "/></g></g></g><g fill="#ffffff" fill-opacity="1"><g transform="translate(138.083176, 26.380849)"><g><path d="M 2.0625 0.0625 C 1.800781 0.0625 1.5625 0.015625 1.34375 -0.078125 C 1.125 -0.171875 0.929688 -0.296875 0.765625 -0.453125 C 0.609375 -0.609375 0.484375 -0.789062 0.390625 -1 C 0.304688 -1.21875 0.265625 -1.453125 0.265625 -1.703125 C 0.265625 -1.953125 0.304688 -2.179688 0.390625 -2.390625 C 0.484375 -2.597656 0.609375 -2.78125 0.765625 -2.9375 C 0.929688 -3.101562 1.125 -3.234375 1.34375 -3.328125 C 1.570312 -3.421875 1.816406 -3.46875 2.078125 -3.46875 C 2.335938 -3.46875 2.578125 -3.421875 2.796875 -3.328125 C 3.023438 -3.234375 3.21875 -3.109375 3.375 -2.953125 C 3.539062 -2.796875 3.664062 -2.609375 3.75 -2.390625 C 3.84375 -2.179688 3.890625 -1.957031 3.890625 -1.71875 L 3.890625 -1.703125 C 3.890625 -1.460938 3.84375 -1.234375 3.75 -1.015625 C 3.65625 -0.804688 3.523438 -0.617188 3.359375 -0.453125 C 3.203125 -0.296875 3.015625 -0.171875 2.796875 -0.078125 C 2.578125 0.015625 2.332031 0.0625 2.0625 0.0625 Z M 2.078125 -0.640625 C 2.222656 -0.640625 2.359375 -0.664062 2.484375 -0.71875 C 2.617188 -0.769531 2.726562 -0.84375 2.8125 -0.9375 C 2.90625 -1.039062 2.972656 -1.15625 3.015625 -1.28125 C 3.066406 -1.414062 3.09375 -1.554688 3.09375 -1.703125 C 3.09375 -1.847656 3.066406 -1.984375 3.015625 -2.109375 C 2.972656 -2.242188 2.90625 -2.359375 2.8125 -2.453125 C 2.71875 -2.554688 2.609375 -2.632812 2.484375 -2.6875 C 2.359375 -2.75 2.21875 -2.78125 2.0625 -2.78125 C 1.914062 -2.78125 1.78125 -2.75 1.65625 -2.6875 C 1.53125 -2.632812 1.421875 -2.5625 1.328125 -2.46875 C 1.234375 -2.375 1.160156 -2.257812 1.109375 -2.125 C 1.066406 -2 1.046875 -1.863281 1.046875 -1.71875 L 1.046875 -1.703125 C 1.046875 -1.554688 1.066406 -1.414062 1.109375 -1.28125 C 1.160156 -1.15625 1.234375 -1.039062 1.328125 -0.9375 C 1.421875 -0.84375 1.53125 -0.769531 1.65625 -0.71875 C 1.78125 -0.664062 1.921875 -0.640625 2.078125 -0.640625 Z M 2.078125 -0.640625 "/></g></g></g><g fill="#ffffff" fill-opacity="1"><g transform="translate(142.32133, 26.380849)"><g><path d="M 0.40625 -3.40625 L 1.96875 -3.40625 C 2.40625 -3.40625 2.738281 -3.289062 2.96875 -3.0625 C 3.15625 -2.875 3.25 -2.613281 3.25 -2.28125 C 3.25 -2 3.179688 -1.769531 3.046875 -1.59375 C 2.921875 -1.425781 2.75 -1.300781 2.53125 -1.21875 L 3.359375 0 L 2.484375 0 L 1.75 -1.09375 L 1.15625 -1.09375 L 1.15625 0 L 0.40625 0 Z M 1.921875 -1.75 C 2.109375 -1.75 2.25 -1.789062 2.34375 -1.875 C 2.445312 -1.96875 2.5 -2.085938 2.5 -2.234375 L 2.5 -2.25 C 2.5 -2.40625 2.445312 -2.523438 2.34375 -2.609375 C 2.238281 -2.691406 2.09375 -2.734375 1.90625 -2.734375 L 1.15625 -2.734375 L 1.15625 -1.75 Z M 1.921875 -1.75 "/></g></g></g><g fill="#ffffff" fill-opacity="1"><g transform="translate(145.940809, 26.380849)"><g><path d="M 0.4375 -3.40625 L 1.1875 -3.40625 L 1.1875 0 L 0.4375 0 Z M 0.4375 -3.40625 "/></g></g></g><g fill="#ffffff" fill-opacity="1"><g transform="translate(147.675043, 26.380849)"><g><path d="M 0.40625 -3.40625 L 1.109375 -3.40625 L 2.703125 -1.3125 L 2.703125 -3.40625 L 3.4375 -3.40625 L 3.4375 0 L 2.796875 0 L 1.15625 -2.171875 L 1.15625 0 L 0.40625 0 Z M 0.40625 -3.40625 "/></g></g></g><g fill="#ffffff" fill-opacity="1"><g transform="translate(151.620912, 26.380849)"><g><path d="M 2.046875 0.0625 C 1.785156 0.0625 1.546875 0.0195312 1.328125 -0.0625 C 1.109375 -0.15625 0.914062 -0.28125 0.75 -0.4375 C 0.59375 -0.59375 0.472656 -0.773438 0.390625 -0.984375 C 0.304688 -1.203125 0.265625 -1.441406 0.265625 -1.703125 C 0.265625 -1.953125 0.304688 -2.179688 0.390625 -2.390625 C 0.484375 -2.597656 0.609375 -2.78125 0.765625 -2.9375 C 0.921875 -3.101562 1.109375 -3.234375 1.328125 -3.328125 C 1.546875 -3.421875 1.785156 -3.46875 2.046875 -3.46875 C 2.203125 -3.46875 2.34375 -3.457031 2.46875 -3.4375 C 2.59375 -3.414062 2.707031 -3.382812 2.8125 -3.34375 C 2.914062 -3.3125 3.015625 -3.265625 3.109375 -3.203125 C 3.203125 -3.140625 3.296875 -3.070312 3.390625 -3 L 2.921875 -2.4375 C 2.847656 -2.488281 2.78125 -2.535156 2.71875 -2.578125 C 2.65625 -2.617188 2.585938 -2.65625 2.515625 -2.6875 C 2.441406 -2.71875 2.363281 -2.738281 2.28125 -2.75 C 2.207031 -2.769531 2.117188 -2.78125 2.015625 -2.78125 C 1.878906 -2.78125 1.753906 -2.75 1.640625 -2.6875 C 1.523438 -2.632812 1.421875 -2.5625 1.328125 -2.46875 C 1.234375 -2.375 1.160156 -2.257812 1.109375 -2.125 C 1.066406 -2 1.046875 -1.863281 1.046875 -1.71875 L 1.046875 -1.703125 C 1.046875 -1.546875 1.066406 -1.398438 1.109375 -1.265625 C 1.160156 -1.140625 1.234375 -1.023438 1.328125 -0.921875 C 1.421875 -0.828125 1.53125 -0.753906 1.65625 -0.703125 C 1.78125 -0.648438 1.921875 -0.625 2.078125 -0.625 C 2.359375 -0.625 2.59375 -0.691406 2.78125 -0.828125 L 2.78125 -1.3125 L 2.03125 -1.3125 L 2.03125 -1.96875 L 3.515625 -1.96875 L 3.515625 -0.484375 C 3.335938 -0.335938 3.125 -0.207031 2.875 -0.09375 C 2.632812 0.0078125 2.359375 0.0625 2.046875 0.0625 Z M 2.046875 0.0625 "/></g></g></g><g fill="#ffffff" fill-opacity="1"><g transform="translate(155.537551, 26.380849)"><g/></g></g><g fill="#ffffff" fill-opacity="1"><g transform="translate(157.096411, 26.380849)"><g><path d="M 1.203125 -2.71875 L 0.171875 -2.71875 L 0.171875 -3.40625 L 3 -3.40625 L 3 -2.71875 L 1.953125 -2.71875 L 1.953125 0 L 1.203125 0 Z M 1.203125 -2.71875 "/></g></g></g><g fill="#ffffff" fill-opacity="1"><g transform="translate(160.350537, 26.380849)"><g><path d="M 2.0625 0.0625 C 1.800781 0.0625 1.5625 0.015625 1.34375 -0.078125 C 1.125 -0.171875 0.929688 -0.296875 0.765625 -0.453125 C 0.609375 -0.609375 0.484375 -0.789062 0.390625 -1 C 0.304688 -1.21875 0.265625 -1.453125 0.265625 -1.703125 C 0.265625 -1.953125 0.304688 -2.179688 0.390625 -2.390625 C 0.484375 -2.597656 0.609375 -2.78125 0.765625 -2.9375 C 0.929688 -3.101562 1.125 -3.234375 1.34375 -3.328125 C 1.570312 -3.421875 1.816406 -3.46875 2.078125 -3.46875 C 2.335938 -3.46875 2.578125 -3.421875 2.796875 -3.328125 C 3.023438 -3.234375 3.21875 -3.109375 3.375 -2.953125 C 3.539062 -2.796875 3.664062 -2.609375 3.75 -2.390625 C 3.84375 -2.179688 3.890625 -1.957031 3.890625 -1.71875 L 3.890625 -1.703125 C 3.890625 -1.460938 3.84375 -1.234375 3.75 -1.015625 C 3.65625 -0.804688 3.523438 -0.617188 3.359375 -0.453125 C 3.203125 -0.296875 3.015625 -0.171875 2.796875 -0.078125 C 2.578125 0.015625 2.332031 0.0625 2.0625 0.0625 Z M 2.078125 -0.640625 C 2.222656 -0.640625 2.359375 -0.664062 2.484375 -0.71875 C 2.617188 -0.769531 2.726562 -0.84375 2.8125 -0.9375 C 2.90625 -1.039062 2.972656 -1.15625 3.015625 -1.28125 C 3.066406 -1.414062 3.09375 -1.554688 3.09375 -1.703125 C 3.09375 -1.847656 3.066406 -1.984375 3.015625 -2.109375 C 2.972656 -2.242188 2.90625 -2.359375 2.8125 -2.453125 C 2.71875 -2.554688 2.609375 -2.632812 2.484375 -2.6875 C 2.359375 -2.75 2.21875 -2.78125 2.0625 -2.78125 C 1.914062 -2.78125 1.78125 -2.75 1.65625 -2.6875 C 1.53125 -2.632812 1.421875 -2.5625 1.328125 -2.46875 C 1.234375 -2.375 1.160156 -2.257812 1.109375 -2.125 C 1.066406 -2 1.046875 -1.863281 1.046875 -1.71875 L 1.046875 -1.703125 C 1.046875 -1.554688 1.066406 -1.414062 1.109375 -1.28125 C 1.160156 -1.15625 1.234375 -1.039062 1.328125 -0.9375 C 1.421875 -0.84375 1.53125 -0.769531 1.65625 -0.71875 C 1.78125 -0.664062 1.921875 -0.640625 2.078125 -0.640625 Z M 2.078125 -0.640625 "/></g></g></g><g fill="#ffffff" fill-opacity="1"><g transform="translate(164.588692, 26.380849)"><g><path d="M 2.0625 0.0625 C 1.800781 0.0625 1.5625 0.015625 1.34375 -0.078125 C 1.125 -0.171875 0.929688 -0.296875 0.765625 -0.453125 C 0.609375 -0.609375 0.484375 -0.789062 0.390625 -1 C 0.304688 -1.21875 0.265625 -1.453125 0.265625 -1.703125 C 0.265625 -1.953125 0.304688 -2.179688 0.390625 -2.390625 C 0.484375 -2.597656 0.609375 -2.78125 0.765625 -2.9375 C 0.929688 -3.101562 1.125 -3.234375 1.34375 -3.328125 C 1.570312 -3.421875 1.816406 -3.46875 2.078125 -3.46875 C 2.335938 -3.46875 2.578125 -3.421875 2.796875 -3.328125 C 3.023438 -3.234375 3.21875 -3.109375 3.375 -2.953125 C 3.539062 -2.796875 3.664062 -2.609375 3.75 -2.390625 C 3.84375 -2.179688 3.890625 -1.957031 3.890625 -1.71875 L 3.890625 -1.703125 C 3.890625 -1.460938 3.84375 -1.234375 3.75 -1.015625 C 3.65625 -0.804688 3.523438 -0.617188 3.359375 -0.453125 C 3.203125 -0.296875 3.015625 -0.171875 2.796875 -0.078125 C 2.578125 0.015625 2.332031 0.0625 2.0625 0.0625 Z M 2.078125 -0.640625 C 2.222656 -0.640625 2.359375 -0.664062 2.484375 -0.71875 C 2.617188 -0.769531 2.726562 -0.84375 2.8125 -0.9375 C 2.90625 -1.039062 2.972656 -1.15625 3.015625 -1.28125 C 3.066406 -1.414062 3.09375 -1.554688 3.09375 -1.703125 C 3.09375 -1.847656 3.066406 -1.984375 3.015625 -2.109375 C 2.972656 -2.242188 2.90625 -2.359375 2.8125 -2.453125 C 2.71875 -2.554688 2.609375 -2.632812 2.484375 -2.6875 C 2.359375 -2.75 2.21875 -2.78125 2.0625 -2.78125 C 1.914062 -2.78125 1.78125 -2.75 1.65625 -2.6875 C 1.53125 -2.632812 1.421875 -2.5625 1.328125 -2.46875 C 1.234375 -2.375 1.160156 -2.257812 1.109375 -2.125 C 1.066406 -2 1.046875 -1.863281 1.046875 -1.71875 L 1.046875 -1.703125 C 1.046875 -1.554688 1.066406 -1.414062 1.109375 -1.28125 C 1.160156 -1.15625 1.234375 -1.039062 1.328125 -0.9375 C 1.421875 -0.84375 1.53125 -0.769531 1.65625 -0.71875 C 1.78125 -0.664062 1.921875 -0.640625 2.078125 -0.640625 Z M 2.078125 -0.640625 "/></g></g></g><g fill="#ffffff" fill-opacity="1"><g transform="translate(168.826846, 26.380849)"><g><path d="M 0.40625 -3.40625 L 1.15625 -3.40625 L 1.15625 -0.6875 L 2.859375 -0.6875 L 2.859375 0 L 0.40625 0 Z M 0.40625 -3.40625 "/></g></g></g></svg>