<svg xmlns="http://www.w3.org/2000/svg" xmlns:xlink="http://www.w3.org/1999/xlink" width="268" zoomAndPan="magnify" viewBox="0 0 200.87999 30.000001" height="40" preserveAspectRatio="xMidYMid meet" version="1.0"><defs><g/><clipPath id="5fc5062d3c"><path d="M 6.085938 2.902344 L 22 2.902344 L 22 26.128906 L 6.085938 26.128906 Z M 6.085938 2.902344 " clip-rule="nonzero"/></clipPath><clipPath id="f2037f6229"><path d="M 33 2.902344 L 49.632812 2.902344 L 49.632812 26 L 33 26 Z M 33 2.902344 " clip-rule="nonzero"/></clipPath><clipPath id="49d0acb445"><path d="M 78 20 L 189 20 L 189 29.03125 L 78 29.03125 Z M 78 20 " clip-rule="nonzero"/></clipPath></defs><path fill="#476072" d="M 35.910156 14.515625 C 35.910156 15.042969 35.859375 15.5625 35.757812 16.082031 C 35.65625 16.597656 35.503906 17.097656 35.300781 17.585938 C 35.101562 18.070312 34.851562 18.53125 34.558594 18.972656 C 34.269531 19.410156 33.933594 19.8125 33.5625 20.1875 C 33.191406 20.558594 32.785156 20.890625 32.347656 21.183594 C 31.910156 21.476562 31.449219 21.722656 30.960938 21.925781 C 30.476562 22.125 29.972656 22.277344 29.457031 22.378906 C 28.941406 22.484375 28.417969 22.535156 27.894531 22.535156 C 27.367188 22.535156 26.84375 22.484375 26.328125 22.378906 C 25.8125 22.277344 25.3125 22.125 24.824219 21.925781 C 24.339844 21.722656 23.875 21.476562 23.4375 21.183594 C 23 20.890625 22.597656 20.558594 22.222656 20.1875 C 21.851562 19.8125 21.519531 19.410156 21.226562 18.972656 C 20.933594 18.53125 20.6875 18.070312 20.484375 17.585938 C 20.285156 17.097656 20.132812 16.597656 20.027344 16.082031 C 19.925781 15.5625 19.875 15.042969 19.875 14.515625 C 19.875 13.988281 19.925781 13.46875 20.027344 12.953125 C 20.132812 12.433594 20.285156 11.933594 20.484375 11.449219 C 20.6875 10.960938 20.933594 10.5 21.226562 10.0625 C 21.519531 9.625 21.851562 9.21875 22.222656 8.847656 C 22.597656 8.472656 23 8.140625 23.4375 7.847656 C 23.875 7.554688 24.339844 7.308594 24.824219 7.109375 C 25.3125 6.90625 25.8125 6.753906 26.328125 6.652344 C 26.84375 6.550781 27.367188 6.496094 27.894531 6.496094 C 28.417969 6.496094 28.941406 6.550781 29.457031 6.652344 C 29.972656 6.753906 30.476562 6.90625 30.960938 7.109375 C 31.449219 7.308594 31.910156 7.554688 32.347656 7.847656 C 32.785156 8.140625 33.191406 8.472656 33.5625 8.847656 C 33.933594 9.21875 34.269531 9.625 34.558594 10.0625 C 34.851562 10.5 35.101562 10.960938 35.300781 11.449219 C 35.503906 11.933594 35.65625 12.433594 35.757812 12.953125 C 35.859375 13.46875 35.910156 13.988281 35.910156 14.515625 Z M 35.910156 14.515625 " fill-opacity="1" fill-rule="nonzero"/><g clip-path="url(#5fc5062d3c)"><path fill="#476072" d="M 14.898438 14.515625 C 14.898438 9.539062 17.753906 5.113281 21.902344 2.996094 C 17.9375 4.007812 14.253906 6.035156 11.304688 8.984375 L 6.695312 13.316406 C 6.417969 13.59375 6.234375 14.054688 6.234375 14.515625 C 6.234375 14.976562 6.417969 15.4375 6.695312 15.714844 L 11.210938 20.136719 C 14.160156 23.085938 17.847656 25.113281 21.808594 26.128906 C 17.753906 23.917969 14.898438 19.492188 14.898438 14.515625 Z M 14.898438 14.515625 " fill-opacity="1" fill-rule="nonzero"/></g><g clip-path="url(#f2037f6229)"><path fill="#476072" d="M 49.089844 13.316406 L 44.574219 8.894531 C 41.625 5.945312 37.9375 3.917969 33.976562 2.902344 C 38.125 5.113281 40.980469 9.445312 40.980469 14.425781 C 40.980469 19.402344 38.125 23.824219 33.976562 25.945312 C 37.9375 24.929688 41.625 22.902344 44.574219 19.953125 L 49.089844 15.53125 C 49.367188 15.253906 49.550781 14.792969 49.550781 14.332031 C 49.550781 14.054688 49.367188 13.59375 49.089844 13.316406 Z M 49.089844 13.316406 " fill-opacity="1" fill-rule="nonzero"/></g><path fill="#476072" d="M 27.894531 24.195312 C 22.546875 24.195312 18.214844 19.863281 18.214844 14.515625 C 18.214844 9.171875 22.546875 4.839844 27.894531 4.839844 C 33.238281 4.839844 37.570312 9.171875 37.570312 14.515625 C 37.570312 19.863281 33.238281 24.195312 27.894531 24.195312 Z M 27.894531 8.15625 C 24.390625 8.15625 21.535156 11.015625 21.535156 14.515625 C 21.535156 18.019531 24.390625 20.875 27.894531 20.875 C 31.394531 20.875 34.253906 18.019531 34.253906 14.515625 C 34.253906 11.015625 31.394531 8.15625 27.894531 8.15625 Z M 27.894531 8.15625 " fill-opacity="1" fill-rule="nonzero"/><g fill="#476072" fill-opacity="1"><g transform="translate(76.544156, 17.727585)"><g><path d="M 0.234375 -13.21875 L 0.234375 -17.046875 L 11.28125 -17.046875 L 11.28125 -13.21875 L 7.953125 -13.21875 L 7.953125 0 L 3.59375 0 L 3.59375 -13.21875 Z M 0.234375 -13.21875 "/></g></g></g><g fill="#476072" fill-opacity="1"><g transform="translate(87.570254, 17.727585)"><g><path d="M 7.34375 -9.625 C 5.914062 -9.625 5.203125 -8.8125 5.203125 -7.1875 L 5.203125 0 L 1.375 0 L 1.375 -17.046875 L 5.203125 -17.046875 L 5.203125 -11.5625 C 5.484375 -12.082031 5.914062 -12.488281 6.5 -12.78125 C 7.09375 -13.070312 7.765625 -13.21875 8.515625 -13.21875 C 9.992188 -13.21875 11.144531 -12.769531 11.96875 -11.875 C 12.800781 -10.976562 13.21875 -9.695312 13.21875 -8.03125 L 13.21875 0 L 9.390625 0 L 9.390625 -7.03125 C 9.390625 -8.757812 8.707031 -9.625 7.34375 -9.625 Z M 7.34375 -9.625 "/></g></g></g><g fill="#476072" fill-opacity="1"><g transform="translate(101.657988, 17.727585)"><g><path d="M 7.46875 -2.8125 C 7.96875 -2.8125 8.394531 -2.90625 8.75 -3.09375 C 9.113281 -3.289062 9.457031 -3.59375 9.78125 -4 L 13.703125 -4 C 13.085938 -2.601562 12.226562 -1.515625 11.125 -0.734375 C 10.03125 0.0351562 8.8125 0.421875 7.46875 0.421875 C 6.25 0.421875 5.117188 0.125 4.078125 -0.46875 C 3.046875 -1.070312 2.222656 -1.890625 1.609375 -2.921875 C 0.992188 -3.960938 0.6875 -5.109375 0.6875 -6.359375 C 0.6875 -7.566406 0.984375 -8.695312 1.578125 -9.75 C 2.179688 -10.800781 2.992188 -11.640625 4.015625 -12.265625 C 5.035156 -12.898438 6.160156 -13.21875 7.390625 -13.21875 C 8.648438 -13.21875 9.796875 -12.910156 10.828125 -12.296875 C 11.859375 -11.679688 12.664062 -10.84375 13.25 -9.78125 C 13.84375 -8.726562 14.140625 -7.546875 14.140625 -6.234375 C 14.140625 -5.867188 14.109375 -5.535156 14.046875 -5.234375 L 4.46875 -5.234375 C 4.570312 -4.503906 4.898438 -3.914062 5.453125 -3.46875 C 6.003906 -3.03125 6.675781 -2.8125 7.46875 -2.8125 Z M 7.390625 -10 C 6.679688 -10 6.0625 -9.800781 5.53125 -9.40625 C 5.007812 -9.019531 4.671875 -8.488281 4.515625 -7.8125 L 10.3125 -7.8125 C 10.164062 -8.46875 9.828125 -8.992188 9.296875 -9.390625 C 8.765625 -9.796875 8.128906 -10 7.390625 -10 Z M 7.390625 -10 "/></g></g></g><g fill="#476072" fill-opacity="1"><g transform="translate(116.082822, 17.727585)"><g><path d="M 6.65625 -7.71875 C 8.144531 -7.71875 9.316406 -8.066406 10.171875 -8.765625 C 11.035156 -9.460938 11.46875 -10.398438 11.46875 -11.578125 C 11.46875 -12.210938 11.316406 -12.820312 11.015625 -13.40625 C 10.722656 -13.988281 10.210938 -14.484375 9.484375 -14.890625 C 8.753906 -15.296875 7.78125 -15.5 6.5625 -15.5 L 3.3125 -15.5 L 3.3125 0 L 1.609375 0 L 1.609375 -17.046875 L 6.75 -17.046875 C 8.15625 -17.046875 9.34375 -16.796875 10.3125 -16.296875 C 11.28125 -15.796875 12 -15.125 12.46875 -14.28125 C 12.9375 -13.445312 13.171875 -12.53125 13.171875 -11.53125 C 13.171875 -10.632812 12.957031 -9.800781 12.53125 -9.03125 C 12.101562 -8.257812 11.503906 -7.640625 10.734375 -7.171875 C 9.960938 -6.703125 9.085938 -6.429688 8.109375 -6.359375 L 12.921875 0 L 10.78125 0 L 5 -7.71875 Z M 6.65625 -7.71875 "/></g></g></g><g fill="#476072" fill-opacity="1"><g transform="translate(129.595061, 17.727585)"><g><path d="M 12.640625 -2.21875 C 12.117188 -1.425781 11.425781 -0.804688 10.5625 -0.359375 C 9.707031 0.078125 8.765625 0.296875 7.734375 0.296875 C 6.492188 0.296875 5.351562 0.00390625 4.3125 -0.578125 C 3.28125 -1.160156 2.460938 -1.953125 1.859375 -2.953125 C 1.265625 -3.960938 0.96875 -5.085938 0.96875 -6.328125 C 0.96875 -7.554688 1.273438 -8.671875 1.890625 -9.671875 C 2.503906 -10.679688 3.328125 -11.472656 4.359375 -12.046875 C 5.398438 -12.628906 6.523438 -12.921875 7.734375 -12.921875 C 8.773438 -12.921875 9.726562 -12.695312 10.59375 -12.25 C 11.457031 -11.800781 12.140625 -11.179688 12.640625 -10.390625 L 12.6875 -10.390625 L 12.6875 -12.59375 L 14.296875 -12.59375 L 14.296875 0 L 12.6875 0 L 12.6875 -2.21875 Z M 12.78125 -6.28125 C 12.78125 -7.207031 12.554688 -8.066406 12.109375 -8.859375 C 11.671875 -9.660156 11.0625 -10.296875 10.28125 -10.765625 C 9.507812 -11.234375 8.65625 -11.46875 7.71875 -11.46875 C 6.757812 -11.46875 5.890625 -11.238281 5.109375 -10.78125 C 4.328125 -10.332031 3.707031 -9.710938 3.25 -8.921875 C 2.800781 -8.128906 2.578125 -7.242188 2.578125 -6.265625 C 2.578125 -5.316406 2.800781 -4.445312 3.25 -3.65625 C 3.695312 -2.875 4.3125 -2.257812 5.09375 -1.8125 C 5.882812 -1.375 6.765625 -1.15625 7.734375 -1.15625 C 8.660156 -1.15625 9.503906 -1.382812 10.265625 -1.84375 C 11.035156 -2.300781 11.644531 -2.921875 12.09375 -3.703125 C 12.550781 -4.484375 12.78125 -5.34375 12.78125 -6.28125 Z M 12.78125 -6.28125 "/></g></g></g><g fill="#476072" fill-opacity="1"><g transform="translate(144.856818, 17.727585)"><g><path d="M 1.890625 -12.59375 L 6.328125 -2 L 10.84375 -12.59375 L 12.578125 -12.59375 L 7.25 0 L 5.484375 0 L 0.15625 -12.59375 Z M 1.890625 -12.59375 "/></g></g></g><g fill="#476072" fill-opacity="1"><g transform="translate(157.149018, 17.727585)"><g><path d="M 7.421875 -1.15625 C 8.410156 -1.15625 9.320312 -1.421875 10.15625 -1.953125 C 11 -2.492188 11.59375 -3.21875 11.9375 -4.125 L 13.640625 -4.125 C 13.160156 -2.789062 12.347656 -1.71875 11.203125 -0.90625 C 10.054688 -0.101562 8.800781 0.296875 7.4375 0.296875 C 6.257812 0.296875 5.164062 0.00390625 4.15625 -0.578125 C 3.15625 -1.160156 2.359375 -1.957031 1.765625 -2.96875 C 1.171875 -3.976562 0.875 -5.082031 0.875 -6.28125 C 0.875 -7.476562 1.171875 -8.582031 1.765625 -9.59375 C 2.367188 -10.613281 3.171875 -11.421875 4.171875 -12.015625 C 5.179688 -12.617188 6.265625 -12.921875 7.421875 -12.921875 C 8.648438 -12.921875 9.765625 -12.601562 10.765625 -11.96875 C 11.773438 -11.34375 12.570312 -10.507812 13.15625 -9.46875 C 13.738281 -8.4375 14.03125 -7.347656 14.03125 -6.203125 L 14 -5.71875 L 2.53125 -5.71875 C 2.582031 -4.894531 2.835938 -4.132812 3.296875 -3.4375 C 3.765625 -2.738281 4.367188 -2.179688 5.109375 -1.765625 C 5.847656 -1.359375 6.617188 -1.15625 7.421875 -1.15625 Z M 7.421875 -11.46875 C 6.628906 -11.46875 5.890625 -11.285156 5.203125 -10.921875 C 4.515625 -10.566406 3.929688 -10.0625 3.453125 -9.40625 C 2.972656 -8.75 2.664062 -8 2.53125 -7.15625 L 12.375 -7.15625 C 12.132812 -8.4375 11.554688 -9.472656 10.640625 -10.265625 C 9.734375 -11.066406 8.660156 -11.46875 7.421875 -11.46875 Z M 7.421875 -11.46875 "/></g></g></g><g fill="#476072" fill-opacity="1"><g transform="translate(171.651116, 17.727585)"><g><path d="M 7.046875 -11.46875 C 5.847656 -11.46875 4.890625 -11.0625 4.171875 -10.25 C 3.460938 -9.4375 3.109375 -8.398438 3.109375 -7.140625 L 3.109375 0 L 1.5 0 L 1.5 -12.59375 L 3.109375 -12.59375 L 3.109375 -10.984375 L 3.15625 -10.984375 C 3.550781 -11.597656 4.085938 -12.070312 4.765625 -12.40625 C 5.453125 -12.75 6.207031 -12.921875 7.03125 -12.921875 C 8.164062 -12.921875 9.148438 -12.675781 9.984375 -12.1875 C 10.816406 -11.695312 11.457031 -11.003906 11.90625 -10.109375 C 12.351562 -9.222656 12.578125 -8.195312 12.578125 -7.03125 L 12.578125 0 L 10.96875 0 L 10.96875 -7.03125 C 10.96875 -7.945312 10.796875 -8.738281 10.453125 -9.40625 C 10.117188 -10.070312 9.648438 -10.582031 9.046875 -10.9375 C 8.453125 -11.289062 7.785156 -11.46875 7.046875 -11.46875 Z M 7.046875 -11.46875 "/></g></g></g><g clip-path="url(#49d0acb445)"><path fill="#476072" d="M 79.378906 20.074219 L 187.453125 20.074219 C 187.742188 20.074219 188.023438 20.1875 188.230469 20.394531 C 188.433594 20.601562 188.550781 20.878906 188.550781 21.171875 L 188.550781 28.132812 C 188.550781 28.421875 188.433594 28.703125 188.230469 28.910156 C 188.023438 29.113281 187.742188 29.230469 187.453125 29.230469 L 79.378906 29.230469 C 78.769531 29.230469 78.277344 28.738281 78.277344 28.132812 L 78.277344 21.171875 C 78.277344 20.566406 78.769531 20.074219 79.378906 20.074219 Z M 79.378906 20.074219 " fill-opacity="1" fill-rule="nonzero"/></g><g fill="#ffffff" fill-opacity="1"><g transform="translate(80.620278, 26.712636)"><g><path d="M 0.46875 -3.84375 L 2.03125 -3.84375 C 2.257812 -3.84375 2.460938 -3.8125 2.640625 -3.75 C 2.828125 -3.6875 2.984375 -3.597656 3.109375 -3.484375 C 3.242188 -3.367188 3.34375 -3.226562 3.40625 -3.0625 C 3.476562 -2.894531 3.515625 -2.710938 3.515625 -2.515625 C 3.515625 -2.285156 3.472656 -2.085938 3.390625 -1.921875 C 3.304688 -1.753906 3.191406 -1.613281 3.046875 -1.5 C 2.910156 -1.382812 2.75 -1.296875 2.5625 -1.234375 C 2.375 -1.179688 2.171875 -1.15625 1.953125 -1.15625 L 1.3125 -1.15625 L 1.3125 0 L 0.46875 0 Z M 1.984375 -1.90625 C 2.191406 -1.90625 2.351562 -1.960938 2.46875 -2.078125 C 2.59375 -2.191406 2.65625 -2.328125 2.65625 -2.484375 L 2.65625 -2.5 C 2.65625 -2.6875 2.59375 -2.828125 2.46875 -2.921875 C 2.34375 -3.023438 2.175781 -3.078125 1.96875 -3.078125 L 1.3125 -3.078125 L 1.3125 -1.90625 Z M 1.984375 -1.90625 "/></g></g></g><g fill="#ffffff" fill-opacity="1"><g transform="translate(84.402093, 26.712636)"><g><path d="M 0.46875 -3.84375 L 3.359375 -3.84375 L 3.359375 -3.09375 L 1.296875 -3.09375 L 1.296875 -2.3125 L 3.125 -2.3125 L 3.125 -1.5625 L 1.296875 -1.5625 L 1.296875 -0.75 L 3.390625 -0.75 L 3.390625 0 L 0.46875 0 Z M 0.46875 -3.84375 "/></g></g></g><g fill="#ffffff" fill-opacity="1"><g transform="translate(88.194904, 26.712636)"><g><path d="M 0.46875 -3.84375 L 2.21875 -3.84375 C 2.707031 -3.84375 3.082031 -3.710938 3.34375 -3.453125 C 3.5625 -3.234375 3.671875 -2.941406 3.671875 -2.578125 L 3.671875 -2.5625 C 3.671875 -2.25 3.59375 -1.992188 3.4375 -1.796875 C 3.289062 -1.609375 3.09375 -1.46875 2.84375 -1.375 L 3.796875 0 L 2.796875 0 L 1.96875 -1.234375 L 1.3125 -1.234375 L 1.3125 0 L 0.46875 0 Z M 2.171875 -1.984375 C 2.378906 -1.984375 2.535156 -2.03125 2.640625 -2.125 C 2.753906 -2.226562 2.8125 -2.363281 2.8125 -2.53125 C 2.8125 -2.71875 2.753906 -2.851562 2.640625 -2.9375 C 2.523438 -3.03125 2.363281 -3.078125 2.15625 -3.078125 L 1.3125 -3.078125 L 1.3125 -1.984375 Z M 2.171875 -1.984375 "/></g></g></g><g fill="#ffffff" fill-opacity="1"><g transform="translate(92.279044, 26.712636)"><g><path d="M 0.46875 -3.84375 L 3.390625 -3.84375 L 3.390625 -3.078125 L 1.3125 -3.078125 L 1.3125 -2.265625 L 3.140625 -2.265625 L 3.140625 -1.484375 L 1.3125 -1.484375 L 1.3125 0 L 0.46875 0 Z M 0.46875 -3.84375 "/></g></g></g><g fill="#ffffff" fill-opacity="1"><g transform="translate(95.9949, 26.712636)"><g><path d="M 2.328125 0.0625 C 2.035156 0.0625 1.765625 0.0078125 1.515625 -0.09375 C 1.265625 -0.195312 1.046875 -0.335938 0.859375 -0.515625 C 0.679688 -0.691406 0.539062 -0.898438 0.4375 -1.140625 C 0.34375 -1.378906 0.296875 -1.632812 0.296875 -1.90625 L 0.296875 -1.921875 C 0.296875 -2.203125 0.34375 -2.460938 0.4375 -2.703125 C 0.539062 -2.941406 0.679688 -3.148438 0.859375 -3.328125 C 1.046875 -3.515625 1.265625 -3.660156 1.515625 -3.765625 C 1.765625 -3.867188 2.039062 -3.921875 2.34375 -3.921875 C 2.632812 -3.921875 2.90625 -3.867188 3.15625 -3.765625 C 3.40625 -3.660156 3.617188 -3.515625 3.796875 -3.328125 C 3.984375 -3.148438 4.128906 -2.941406 4.234375 -2.703125 C 4.335938 -2.460938 4.390625 -2.207031 4.390625 -1.9375 L 4.390625 -1.921875 C 4.390625 -1.648438 4.335938 -1.394531 4.234375 -1.15625 C 4.128906 -0.914062 3.984375 -0.703125 3.796875 -0.515625 C 3.617188 -0.335938 3.40625 -0.195312 3.15625 -0.09375 C 2.90625 0.0078125 2.628906 0.0625 2.328125 0.0625 Z M 2.34375 -0.71875 C 2.507812 -0.71875 2.664062 -0.75 2.8125 -0.8125 C 2.957031 -0.875 3.078125 -0.957031 3.171875 -1.0625 C 3.273438 -1.175781 3.351562 -1.304688 3.40625 -1.453125 C 3.46875 -1.597656 3.5 -1.75 3.5 -1.90625 L 3.5 -1.921875 C 3.5 -2.085938 3.46875 -2.242188 3.40625 -2.390625 C 3.351562 -2.535156 3.273438 -2.660156 3.171875 -2.765625 C 3.066406 -2.878906 2.941406 -2.96875 2.796875 -3.03125 C 2.648438 -3.101562 2.492188 -3.140625 2.328125 -3.140625 C 2.160156 -3.140625 2.003906 -3.109375 1.859375 -3.046875 C 1.722656 -2.984375 1.601562 -2.894531 1.5 -2.78125 C 1.394531 -2.675781 1.3125 -2.550781 1.25 -2.40625 C 1.195312 -2.257812 1.171875 -2.101562 1.171875 -1.9375 L 1.171875 -1.921875 C 1.171875 -1.753906 1.195312 -1.597656 1.25 -1.453125 C 1.3125 -1.304688 1.394531 -1.175781 1.5 -1.0625 C 1.601562 -0.957031 1.722656 -0.875 1.859375 -0.8125 C 2.003906 -0.75 2.164062 -0.71875 2.34375 -0.71875 Z M 2.34375 -0.71875 "/></g></g></g><g fill="#ffffff" fill-opacity="1"><g transform="translate(100.77714, 26.712636)"><g><path d="M 0.46875 -3.84375 L 2.21875 -3.84375 C 2.707031 -3.84375 3.082031 -3.710938 3.34375 -3.453125 C 3.5625 -3.234375 3.671875 -2.941406 3.671875 -2.578125 L 3.671875 -2.5625 C 3.671875 -2.25 3.59375 -1.992188 3.4375 -1.796875 C 3.289062 -1.609375 3.09375 -1.46875 2.84375 -1.375 L 3.796875 0 L 2.796875 0 L 1.96875 -1.234375 L 1.3125 -1.234375 L 1.3125 0 L 0.46875 0 Z M 2.171875 -1.984375 C 2.378906 -1.984375 2.535156 -2.03125 2.640625 -2.125 C 2.753906 -2.226562 2.8125 -2.363281 2.8125 -2.53125 C 2.8125 -2.71875 2.753906 -2.851562 2.640625 -2.9375 C 2.523438 -3.03125 2.363281 -3.078125 2.15625 -3.078125 L 1.3125 -3.078125 L 1.3125 -1.984375 Z M 2.171875 -1.984375 "/></g></g></g><g fill="#ffffff" fill-opacity="1"><g transform="translate(104.86128, 26.712636)"><g><path d="M 0.46875 -3.84375 L 1.375 -3.84375 L 2.390625 -2.21875 L 3.40625 -3.84375 L 4.3125 -3.84375 L 4.3125 0 L 3.46875 0 L 3.46875 -2.515625 L 2.390625 -0.875 L 2.359375 -0.875 L 1.296875 -2.5 L 1.296875 0 L 0.46875 0 Z M 0.46875 -3.84375 "/></g></g></g><g fill="#ffffff" fill-opacity="1"><g transform="translate(109.742464, 26.712636)"><g><path d="M 1.78125 -3.875 L 2.5625 -3.875 L 4.21875 0 L 3.328125 0 L 2.96875 -0.859375 L 1.34375 -0.859375 L 1 0 L 0.125 0 Z M 2.671875 -1.609375 L 2.15625 -2.859375 L 1.65625 -1.609375 Z M 2.671875 -1.609375 "/></g></g></g><g fill="#ffffff" fill-opacity="1"><g transform="translate(114.194897, 26.712636)"><g><path d="M 0.46875 -3.84375 L 1.25 -3.84375 L 3.046875 -1.484375 L 3.046875 -3.84375 L 3.890625 -3.84375 L 3.890625 0 L 3.15625 0 L 1.296875 -2.453125 L 1.296875 0 L 0.46875 0 Z M 0.46875 -3.84375 "/></g></g></g><g fill="#ffffff" fill-opacity="1"><g transform="translate(118.647329, 26.712636)"><g><path d="M 2.265625 0.0625 C 1.984375 0.0625 1.71875 0.015625 1.46875 -0.078125 C 1.226562 -0.179688 1.019531 -0.320312 0.84375 -0.5 C 0.675781 -0.6875 0.539062 -0.898438 0.4375 -1.140625 C 0.34375 -1.378906 0.296875 -1.632812 0.296875 -1.90625 L 0.296875 -1.921875 C 0.296875 -2.203125 0.34375 -2.460938 0.4375 -2.703125 C 0.539062 -2.941406 0.675781 -3.148438 0.84375 -3.328125 C 1.019531 -3.515625 1.234375 -3.660156 1.484375 -3.765625 C 1.734375 -3.867188 2.003906 -3.921875 2.296875 -3.921875 C 2.472656 -3.921875 2.632812 -3.90625 2.78125 -3.875 C 2.9375 -3.84375 3.070312 -3.800781 3.1875 -3.75 C 3.3125 -3.695312 3.425781 -3.632812 3.53125 -3.5625 C 3.632812 -3.488281 3.726562 -3.410156 3.8125 -3.328125 L 3.28125 -2.703125 C 3.125 -2.835938 2.96875 -2.941406 2.8125 -3.015625 C 2.65625 -3.097656 2.484375 -3.140625 2.296875 -3.140625 C 2.128906 -3.140625 1.976562 -3.109375 1.84375 -3.046875 C 1.707031 -2.984375 1.585938 -2.894531 1.484375 -2.78125 C 1.390625 -2.675781 1.3125 -2.550781 1.25 -2.40625 C 1.195312 -2.257812 1.171875 -2.101562 1.171875 -1.9375 L 1.171875 -1.921875 C 1.171875 -1.753906 1.195312 -1.597656 1.25 -1.453125 C 1.3125 -1.304688 1.390625 -1.175781 1.484375 -1.0625 C 1.585938 -0.957031 1.707031 -0.875 1.84375 -0.8125 C 1.976562 -0.75 2.128906 -0.71875 2.296875 -0.71875 C 2.515625 -0.71875 2.695312 -0.753906 2.84375 -0.828125 C 3 -0.910156 3.15625 -1.023438 3.3125 -1.171875 L 3.84375 -0.625 C 3.75 -0.519531 3.644531 -0.421875 3.53125 -0.328125 C 3.425781 -0.242188 3.3125 -0.171875 3.1875 -0.109375 C 3.0625 -0.0546875 2.921875 -0.015625 2.765625 0.015625 C 2.617188 0.046875 2.453125 0.0625 2.265625 0.0625 Z M 2.265625 0.0625 "/></g></g></g><g fill="#ffffff" fill-opacity="1"><g transform="translate(122.813925, 26.712636)"><g><path d="M 0.46875 -3.84375 L 3.359375 -3.84375 L 3.359375 -3.09375 L 1.296875 -3.09375 L 1.296875 -2.3125 L 3.125 -2.3125 L 3.125 -1.5625 L 1.296875 -1.5625 L 1.296875 -0.75 L 3.390625 -0.75 L 3.390625 0 L 0.46875 0 Z M 0.46875 -3.84375 "/></g></g></g><g fill="#ffffff" fill-opacity="1"><g transform="translate(126.606734, 26.712636)"><g/></g></g><g fill="#ffffff" fill-opacity="1"><g transform="translate(128.365716, 26.712636)"><g><path d="M 0.46875 -3.84375 L 1.375 -3.84375 L 2.390625 -2.21875 L 3.40625 -3.84375 L 4.3125 -3.84375 L 4.3125 0 L 3.46875 0 L 3.46875 -2.515625 L 2.390625 -0.875 L 2.359375 -0.875 L 1.296875 -2.5 L 1.296875 0 L 0.46875 0 Z M 0.46875 -3.84375 "/></g></g></g><g fill="#ffffff" fill-opacity="1"><g transform="translate(133.2469, 26.712636)"><g><path d="M 2.328125 0.0625 C 2.035156 0.0625 1.765625 0.0078125 1.515625 -0.09375 C 1.265625 -0.195312 1.046875 -0.335938 0.859375 -0.515625 C 0.679688 -0.691406 0.539062 -0.898438 0.4375 -1.140625 C 0.34375 -1.378906 0.296875 -1.632812 0.296875 -1.90625 L 0.296875 -1.921875 C 0.296875 -2.203125 0.34375 -2.460938 0.4375 -2.703125 C 0.539062 -2.941406 0.679688 -3.148438 0.859375 -3.328125 C 1.046875 -3.515625 1.265625 -3.660156 1.515625 -3.765625 C 1.765625 -3.867188 2.039062 -3.921875 2.34375 -3.921875 C 2.632812 -3.921875 2.90625 -3.867188 3.15625 -3.765625 C 3.40625 -3.660156 3.617188 -3.515625 3.796875 -3.328125 C 3.984375 -3.148438 4.128906 -2.941406 4.234375 -2.703125 C 4.335938 -2.460938 4.390625 -2.207031 4.390625 -1.9375 L 4.390625 -1.921875 C 4.390625 -1.648438 4.335938 -1.394531 4.234375 -1.15625 C 4.128906 -0.914062 3.984375 -0.703125 3.796875 -0.515625 C 3.617188 -0.335938 3.40625 -0.195312 3.15625 -0.09375 C 2.90625 0.0078125 2.628906 0.0625 2.328125 0.0625 Z M 2.34375 -0.71875 C 2.507812 -0.71875 2.664062 -0.75 2.8125 -0.8125 C 2.957031 -0.875 3.078125 -0.957031 3.171875 -1.0625 C 3.273438 -1.175781 3.351562 -1.304688 3.40625 -1.453125 C 3.46875 -1.597656 3.5 -1.75 3.5 -1.90625 L 3.5 -1.921875 C 3.5 -2.085938 3.46875 -2.242188 3.40625 -2.390625 C 3.351562 -2.535156 3.273438 -2.660156 3.171875 -2.765625 C 3.066406 -2.878906 2.941406 -2.96875 2.796875 -3.03125 C 2.648438 -3.101562 2.492188 -3.140625 2.328125 -3.140625 C 2.160156 -3.140625 2.003906 -3.109375 1.859375 -3.046875 C 1.722656 -2.984375 1.601562 -2.894531 1.5 -2.78125 C 1.394531 -2.675781 1.3125 -2.550781 1.25 -2.40625 C 1.195312 -2.257812 1.171875 -2.101562 1.171875 -1.9375 L 1.171875 -1.921875 C 1.171875 -1.753906 1.195312 -1.597656 1.25 -1.453125 C 1.3125 -1.304688 1.394531 -1.175781 1.5 -1.0625 C 1.601562 -0.957031 1.722656 -0.875 1.859375 -0.8125 C 2.003906 -0.75 2.164062 -0.71875 2.34375 -0.71875 Z M 2.34375 -0.71875 "/></g></g></g><g fill="#ffffff" fill-opacity="1"><g transform="translate(138.02914, 26.712636)"><g><path d="M 0.46875 -3.84375 L 1.25 -3.84375 L 3.046875 -1.484375 L 3.046875 -3.84375 L 3.890625 -3.84375 L 3.890625 0 L 3.15625 0 L 1.296875 -2.453125 L 1.296875 0 L 0.46875 0 Z M 0.46875 -3.84375 "/></g></g></g><g fill="#ffffff" fill-opacity="1"><g transform="translate(142.481573, 26.712636)"><g><path d="M 0.5 -3.84375 L 1.34375 -3.84375 L 1.34375 0 L 0.5 0 Z M 0.5 -3.84375 "/></g></g></g><g fill="#ffffff" fill-opacity="1"><g transform="translate(144.438445, 26.712636)"><g><path d="M 1.359375 -3.0625 L 0.1875 -3.0625 L 0.1875 -3.84375 L 3.375 -3.84375 L 3.375 -3.0625 L 2.203125 -3.0625 L 2.203125 0 L 1.359375 0 Z M 1.359375 -3.0625 "/></g></g></g><g fill="#ffffff" fill-opacity="1"><g transform="translate(148.110332, 26.712636)"><g><path d="M 2.328125 0.0625 C 2.035156 0.0625 1.765625 0.0078125 1.515625 -0.09375 C 1.265625 -0.195312 1.046875 -0.335938 0.859375 -0.515625 C 0.679688 -0.691406 0.539062 -0.898438 0.4375 -1.140625 C 0.34375 -1.378906 0.296875 -1.632812 0.296875 -1.90625 L 0.296875 -1.921875 C 0.296875 -2.203125 0.34375 -2.460938 0.4375 -2.703125 C 0.539062 -2.941406 0.679688 -3.148438 0.859375 -3.328125 C 1.046875 -3.515625 1.265625 -3.660156 1.515625 -3.765625 C 1.765625 -3.867188 2.039062 -3.921875 2.34375 -3.921875 C 2.632812 -3.921875 2.90625 -3.867188 3.15625 -3.765625 C 3.40625 -3.660156 3.617188 -3.515625 3.796875 -3.328125 C 3.984375 -3.148438 4.128906 -2.941406 4.234375 -2.703125 C 4.335938 -2.460938 4.390625 -2.207031 4.390625 -1.9375 L 4.390625 -1.921875 C 4.390625 -1.648438 4.335938 -1.394531 4.234375 -1.15625 C 4.128906 -0.914062 3.984375 -0.703125 3.796875 -0.515625 C 3.617188 -0.335938 3.40625 -0.195312 3.15625 -0.09375 C 2.90625 0.0078125 2.628906 0.0625 2.328125 0.0625 Z M 2.34375 -0.71875 C 2.507812 -0.71875 2.664062 -0.75 2.8125 -0.8125 C 2.957031 -0.875 3.078125 -0.957031 3.171875 -1.0625 C 3.273438 -1.175781 3.351562 -1.304688 3.40625 -1.453125 C 3.46875 -1.597656 3.5 -1.75 3.5 -1.90625 L 3.5 -1.921875 C 3.5 -2.085938 3.46875 -2.242188 3.40625 -2.390625 C 3.351562 -2.535156 3.273438 -2.660156 3.171875 -2.765625 C 3.066406 -2.878906 2.941406 -2.96875 2.796875 -3.03125 C 2.648438 -3.101562 2.492188 -3.140625 2.328125 -3.140625 C 2.160156 -3.140625 2.003906 -3.109375 1.859375 -3.046875 C 1.722656 -2.984375 1.601562 -2.894531 1.5 -2.78125 C 1.394531 -2.675781 1.3125 -2.550781 1.25 -2.40625 C 1.195312 -2.257812 1.171875 -2.101562 1.171875 -1.9375 L 1.171875 -1.921875 C 1.171875 -1.753906 1.195312 -1.597656 1.25 -1.453125 C 1.3125 -1.304688 1.394531 -1.175781 1.5 -1.0625 C 1.601562 -0.957031 1.722656 -0.875 1.859375 -0.8125 C 2.003906 -0.75 2.164062 -0.71875 2.34375 -0.71875 Z M 2.34375 -0.71875 "/></g></g></g><g fill="#ffffff" fill-opacity="1"><g transform="translate(152.892576, 26.712636)"><g><path d="M 0.46875 -3.84375 L 2.21875 -3.84375 C 2.707031 -3.84375 3.082031 -3.710938 3.34375 -3.453125 C 3.5625 -3.234375 3.671875 -2.941406 3.671875 -2.578125 L 3.671875 -2.5625 C 3.671875 -2.25 3.59375 -1.992188 3.4375 -1.796875 C 3.289062 -1.609375 3.09375 -1.46875 2.84375 -1.375 L 3.796875 0 L 2.796875 0 L 1.96875 -1.234375 L 1.3125 -1.234375 L 1.3125 0 L 0.46875 0 Z M 2.171875 -1.984375 C 2.378906 -1.984375 2.535156 -2.03125 2.640625 -2.125 C 2.753906 -2.226562 2.8125 -2.363281 2.8125 -2.53125 C 2.8125 -2.71875 2.753906 -2.851562 2.640625 -2.9375 C 2.523438 -3.03125 2.363281 -3.078125 2.15625 -3.078125 L 1.3125 -3.078125 L 1.3125 -1.984375 Z M 2.171875 -1.984375 "/></g></g></g><g fill="#ffffff" fill-opacity="1"><g transform="translate(156.97672, 26.712636)"><g><path d="M 0.5 -3.84375 L 1.34375 -3.84375 L 1.34375 0 L 0.5 0 Z M 0.5 -3.84375 "/></g></g></g><g fill="#ffffff" fill-opacity="1"><g transform="translate(158.933593, 26.712636)"><g><path d="M 0.46875 -3.84375 L 1.25 -3.84375 L 3.046875 -1.484375 L 3.046875 -3.84375 L 3.890625 -3.84375 L 3.890625 0 L 3.15625 0 L 1.296875 -2.453125 L 1.296875 0 L 0.46875 0 Z M 0.46875 -3.84375 "/></g></g></g><g fill="#ffffff" fill-opacity="1"><g transform="translate(163.386028, 26.712636)"><g><path d="M 2.3125 0.0625 C 2.007812 0.0625 1.734375 0.015625 1.484375 -0.078125 C 1.242188 -0.179688 1.035156 -0.320312 0.859375 -0.5 C 0.679688 -0.675781 0.539062 -0.882812 0.4375 -1.125 C 0.34375 -1.363281 0.296875 -1.625 0.296875 -1.90625 L 0.296875 -1.921875 C 0.296875 -2.203125 0.34375 -2.460938 0.4375 -2.703125 C 0.539062 -2.941406 0.679688 -3.148438 0.859375 -3.328125 C 1.046875 -3.515625 1.257812 -3.660156 1.5 -3.765625 C 1.75 -3.867188 2.019531 -3.921875 2.3125 -3.921875 C 2.476562 -3.921875 2.628906 -3.90625 2.765625 -3.875 C 2.910156 -3.851562 3.046875 -3.820312 3.171875 -3.78125 C 3.296875 -3.738281 3.410156 -3.679688 3.515625 -3.609375 C 3.617188 -3.546875 3.722656 -3.472656 3.828125 -3.390625 L 3.28125 -2.75 C 3.207031 -2.8125 3.132812 -2.863281 3.0625 -2.90625 C 2.988281 -2.957031 2.910156 -3 2.828125 -3.03125 C 2.753906 -3.0625 2.671875 -3.085938 2.578125 -3.109375 C 2.492188 -3.128906 2.394531 -3.140625 2.28125 -3.140625 C 2.125 -3.140625 1.976562 -3.101562 1.84375 -3.03125 C 1.71875 -2.96875 1.601562 -2.882812 1.5 -2.78125 C 1.394531 -2.675781 1.3125 -2.550781 1.25 -2.40625 C 1.195312 -2.257812 1.171875 -2.101562 1.171875 -1.9375 L 1.171875 -1.921875 C 1.171875 -1.742188 1.195312 -1.582031 1.25 -1.4375 C 1.3125 -1.289062 1.394531 -1.160156 1.5 -1.046875 C 1.601562 -0.941406 1.722656 -0.859375 1.859375 -0.796875 C 2.003906 -0.734375 2.164062 -0.703125 2.34375 -0.703125 C 2.65625 -0.703125 2.921875 -0.78125 3.140625 -0.9375 L 3.140625 -1.484375 L 2.28125 -1.484375 L 2.28125 -2.21875 L 3.953125 -2.21875 L 3.953125 -0.546875 C 3.753906 -0.378906 3.519531 -0.234375 3.25 -0.109375 C 2.976562 0.00390625 2.664062 0.0625 2.3125 0.0625 Z M 2.3125 0.0625 "/></g></g></g><g fill="#ffffff" fill-opacity="1"><g transform="translate(167.805481, 26.712636)"><g/></g></g><g fill="#ffffff" fill-opacity="1"><g transform="translate(169.564466, 26.712636)"><g><path d="M 1.359375 -3.0625 L 0.1875 -3.0625 L 0.1875 -3.84375 L 3.375 -3.84375 L 3.375 -3.0625 L 2.203125 -3.0625 L 2.203125 0 L 1.359375 0 Z M 1.359375 -3.0625 "/></g></g></g><g fill="#ffffff" fill-opacity="1"><g transform="translate(173.236353, 26.712636)"><g><path d="M 2.328125 0.0625 C 2.035156 0.0625 1.765625 0.0078125 1.515625 -0.09375 C 1.265625 -0.195312 1.046875 -0.335938 0.859375 -0.515625 C 0.679688 -0.691406 0.539062 -0.898438 0.4375 -1.140625 C 0.34375 -1.378906 0.296875 -1.632812 0.296875 -1.90625 L 0.296875 -1.921875 C 0.296875 -2.203125 0.34375 -2.460938 0.4375 -2.703125 C 0.539062 -2.941406 0.679688 -3.148438 0.859375 -3.328125 C 1.046875 -3.515625 1.265625 -3.660156 1.515625 -3.765625 C 1.765625 -3.867188 2.039062 -3.921875 2.34375 -3.921875 C 2.632812 -3.921875 2.90625 -3.867188 3.15625 -3.765625 C 3.40625 -3.660156 3.617188 -3.515625 3.796875 -3.328125 C 3.984375 -3.148438 4.128906 -2.941406 4.234375 -2.703125 C 4.335938 -2.460938 4.390625 -2.207031 4.390625 -1.9375 L 4.390625 -1.921875 C 4.390625 -1.648438 4.335938 -1.394531 4.234375 -1.15625 C 4.128906 -0.914062 3.984375 -0.703125 3.796875 -0.515625 C 3.617188 -0.335938 3.40625 -0.195312 3.15625 -0.09375 C 2.90625 0.0078125 2.628906 0.0625 2.328125 0.0625 Z M 2.34375 -0.71875 C 2.507812 -0.71875 2.664062 -0.75 2.8125 -0.8125 C 2.957031 -0.875 3.078125 -0.957031 3.171875 -1.0625 C 3.273438 -1.175781 3.351562 -1.304688 3.40625 -1.453125 C 3.46875 -1.597656 3.5 -1.75 3.5 -1.90625 L 3.5 -1.921875 C 3.5 -2.085938 3.46875 -2.242188 3.40625 -2.390625 C 3.351562 -2.535156 3.273438 -2.660156 3.171875 -2.765625 C 3.066406 -2.878906 2.941406 -2.96875 2.796875 -3.03125 C 2.648438 -3.101562 2.492188 -3.140625 2.328125 -3.140625 C 2.160156 -3.140625 2.003906 -3.109375 1.859375 -3.046875 C 1.722656 -2.984375 1.601562 -2.894531 1.5 -2.78125 C 1.394531 -2.675781 1.3125 -2.550781 1.25 -2.40625 C 1.195312 -2.257812 1.171875 -2.101562 1.171875 -1.9375 L 1.171875 -1.921875 C 1.171875 -1.753906 1.195312 -1.597656 1.25 -1.453125 C 1.3125 -1.304688 1.394531 -1.175781 1.5 -1.0625 C 1.601562 -0.957031 1.722656 -0.875 1.859375 -0.8125 C 2.003906 -0.75 2.164062 -0.71875 2.34375 -0.71875 Z M 2.34375 -0.71875 "/></g></g></g><g fill="#ffffff" fill-opacity="1"><g transform="translate(178.018597, 26.712636)"><g><path d="M 2.328125 0.0625 C 2.035156 0.0625 1.765625 0.0078125 1.515625 -0.09375 C 1.265625 -0.195312 1.046875 -0.335938 0.859375 -0.515625 C 0.679688 -0.691406 0.539062 -0.898438 0.4375 -1.140625 C 0.34375 -1.378906 0.296875 -1.632812 0.296875 -1.90625 L 0.296875 -1.921875 C 0.296875 -2.203125 0.34375 -2.460938 0.4375 -2.703125 C 0.539062 -2.941406 0.679688 -3.148438 0.859375 -3.328125 C 1.046875 -3.515625 1.265625 -3.660156 1.515625 -3.765625 C 1.765625 -3.867188 2.039062 -3.921875 2.34375 -3.921875 C 2.632812 -3.921875 2.90625 -3.867188 3.15625 -3.765625 C 3.40625 -3.660156 3.617188 -3.515625 3.796875 -3.328125 C 3.984375 -3.148438 4.128906 -2.941406 4.234375 -2.703125 C 4.335938 -2.460938 4.390625 -2.207031 4.390625 -1.9375 L 4.390625 -1.921875 C 4.390625 -1.648438 4.335938 -1.394531 4.234375 -1.15625 C 4.128906 -0.914062 3.984375 -0.703125 3.796875 -0.515625 C 3.617188 -0.335938 3.40625 -0.195312 3.15625 -0.09375 C 2.90625 0.0078125 2.628906 0.0625 2.328125 0.0625 Z M 2.34375 -0.71875 C 2.507812 -0.71875 2.664062 -0.75 2.8125 -0.8125 C 2.957031 -0.875 3.078125 -0.957031 3.171875 -1.0625 C 3.273438 -1.175781 3.351562 -1.304688 3.40625 -1.453125 C 3.46875 -1.597656 3.5 -1.75 3.5 -1.90625 L 3.5 -1.921875 C 3.5 -2.085938 3.46875 -2.242188 3.40625 -2.390625 C 3.351562 -2.535156 3.273438 -2.660156 3.171875 -2.765625 C 3.066406 -2.878906 2.941406 -2.96875 2.796875 -3.03125 C 2.648438 -3.101562 2.492188 -3.140625 2.328125 -3.140625 C 2.160156 -3.140625 2.003906 -3.109375 1.859375 -3.046875 C 1.722656 -2.984375 1.601562 -2.894531 1.5 -2.78125 C 1.394531 -2.675781 1.3125 -2.550781 1.25 -2.40625 C 1.195312 -2.257812 1.171875 -2.101562 1.171875 -1.9375 L 1.171875 -1.921875 C 1.171875 -1.753906 1.195312 -1.597656 1.25 -1.453125 C 1.3125 -1.304688 1.394531 -1.175781 1.5 -1.0625 C 1.601562 -0.957031 1.722656 -0.875 1.859375 -0.8125 C 2.003906 -0.75 2.164062 -0.71875 2.34375 -0.71875 Z M 2.34375 -0.71875 "/></g></g></g><g fill="#ffffff" fill-opacity="1"><g transform="translate(182.800841, 26.712636)"><g><path d="M 0.46875 -3.84375 L 1.3125 -3.84375 L 1.3125 -0.765625 L 3.234375 -0.765625 L 3.234375 0 L 0.46875 0 Z M 0.46875 -3.84375 "/></g></g></g></svg>