<svg xmlns="http://www.w3.org/2000/svg" xmlns:xlink="http://www.w3.org/1999/xlink" width="268" zoomAndPan="magnify" viewBox="0 0 200.87999 30.000001" height="40" preserveAspectRatio="xMidYMid meet" version="1.0"><defs><g/><clipPath id="e1ddf5ea2b"><path d="M 6.085938 2.902344 L 22 2.902344 L 22 26.128906 L 6.085938 26.128906 Z M 6.085938 2.902344 " clip-rule="nonzero"/></clipPath><clipPath id="d72acb2ce0"><path d="M 33 2.902344 L 49.632812 2.902344 L 49.632812 26 L 33 26 Z M 33 2.902344 " clip-rule="nonzero"/></clipPath></defs><path fill="#0084d1" d="M 35.910156 14.515625 C 35.910156 15.042969 35.859375 15.5625 35.757812 16.082031 C 35.65625 16.597656 35.503906 17.097656 35.300781 17.585938 C 35.101562 18.070312 34.851562 18.53125 34.558594 18.972656 C 34.269531 19.410156 33.933594 19.8125 33.5625 20.1875 C 33.191406 20.558594 32.785156 20.890625 32.347656 21.183594 C 31.910156 21.476562 31.449219 21.722656 30.960938 21.925781 C 30.476562 22.125 29.972656 22.277344 29.457031 22.378906 C 28.941406 22.484375 28.417969 22.535156 27.894531 22.535156 C 27.367188 22.535156 26.84375 22.484375 26.328125 22.378906 C 25.8125 22.277344 25.3125 22.125 24.824219 21.925781 C 24.339844 21.722656 23.875 21.476562 23.4375 21.183594 C 23 20.890625 22.597656 20.558594 22.222656 20.1875 C 21.851562 19.8125 21.519531 19.410156 21.226562 18.972656 C 20.933594 18.53125 20.6875 18.070312 20.484375 17.585938 C 20.285156 17.097656 20.132812 16.597656 20.027344 16.082031 C 19.925781 15.5625 19.875 15.042969 19.875 14.515625 C 19.875 13.988281 19.925781 13.46875 20.027344 12.953125 C 20.132812 12.433594 20.285156 11.933594 20.484375 11.449219 C 20.6875 10.960938 20.933594 10.5 21.226562 10.0625 C 21.519531 9.625 21.851562 9.21875 22.222656 8.847656 C 22.597656 8.472656 23 8.140625 23.4375 7.847656 C 23.875 7.554688 24.339844 7.308594 24.824219 7.109375 C 25.3125 6.90625 25.8125 6.753906 26.328125 6.652344 C 26.84375 6.550781 27.367188 6.496094 27.894531 6.496094 C 28.417969 6.496094 28.941406 6.550781 29.457031 6.652344 C 29.972656 6.753906 30.476562 6.90625 30.960938 7.109375 C 31.449219 7.308594 31.910156 7.554688 32.347656 7.847656 C 32.785156 8.140625 33.191406 8.472656 33.5625 8.847656 C 33.933594 9.21875 34.269531 9.625 34.558594 10.0625 C 34.851562 10.5 35.101562 10.960938 35.300781 11.449219 C 35.503906 11.933594 35.65625 12.433594 35.757812 12.953125 C 35.859375 13.46875 35.910156 13.988281 35.910156 14.515625 Z M 35.910156 14.515625 " fill-opacity="1" fill-rule="nonzero"/><g clip-path="url(#e1ddf5ea2b)"><path fill="#0084d1" d="M 14.898438 14.515625 C 14.898438 9.539062 17.753906 5.113281 21.902344 2.996094 C 17.9375 4.007812 14.253906 6.035156 11.304688 8.984375 L 6.695312 13.316406 C 6.417969 13.59375 6.234375 14.054688 6.234375 14.515625 C 6.234375 14.976562 6.417969 15.4375 6.695312 15.714844 L 11.210938 20.136719 C 14.160156 23.085938 17.847656 25.113281 21.808594 26.128906 C 17.753906 23.917969 14.898438 19.492188 14.898438 14.515625 Z M 14.898438 14.515625 " fill-opacity="1" fill-rule="nonzero"/></g><g clip-path="url(#d72acb2ce0)"><path fill="#0084d1" d="M 49.089844 13.316406 L 44.574219 8.894531 C 41.625 5.945312 37.9375 3.917969 33.976562 2.902344 C 38.125 5.113281 40.980469 9.445312 40.980469 14.425781 C 40.980469 19.402344 38.125 23.824219 33.976562 25.945312 C 37.9375 24.929688 41.625 22.902344 44.574219 19.953125 L 49.089844 15.53125 C 49.367188 15.253906 49.550781 14.792969 49.550781 14.332031 C 49.550781 14.054688 49.367188 13.59375 49.089844 13.316406 Z M 49.089844 13.316406 " fill-opacity="1" fill-rule="nonzero"/></g><path fill="#0084d1" d="M 27.894531 24.195312 C 22.546875 24.195312 18.214844 19.863281 18.214844 14.515625 C 18.214844 9.171875 22.546875 4.839844 27.894531 4.839844 C 33.238281 4.839844 37.570312 9.171875 37.570312 14.515625 C 37.570312 19.863281 33.238281 24.195312 27.894531 24.195312 Z M 27.894531 8.15625 C 24.390625 8.15625 21.535156 11.015625 21.535156 14.515625 C 21.535156 18.019531 24.390625 20.875 27.894531 20.875 C 31.394531 20.875 34.253906 18.019531 34.253906 14.515625 C 34.253906 11.015625 31.394531 8.15625 27.894531 8.15625 Z M 27.894531 8.15625 " fill-opacity="1" fill-rule="nonzero"/><g fill="#0084d1" fill-opacity="1"><g transform="translate(62.681941, 19.233872)"><g><path d="M 0.21875 -12.828125 L 0.21875 -16.53125 L 10.953125 -16.53125 L 10.953125 -12.828125 L 7.703125 -12.828125 L 7.703125 0 L 3.484375 0 L 3.484375 -12.828125 Z M 0.21875 -12.828125 "/></g></g></g><g fill="#0084d1" fill-opacity="1"><g transform="translate(73.383144, 19.233872)"><g><path d="M 7.125 -9.34375 C 5.738281 -9.34375 5.046875 -8.550781 5.046875 -6.96875 L 5.046875 0 L 1.34375 0 L 1.34375 -16.53125 L 5.046875 -16.53125 L 5.046875 -11.21875 C 5.316406 -11.71875 5.738281 -12.109375 6.3125 -12.390625 C 6.882812 -12.679688 7.535156 -12.828125 8.265625 -12.828125 C 9.691406 -12.828125 10.804688 -12.390625 11.609375 -11.515625 C 12.421875 -10.648438 12.828125 -9.410156 12.828125 -7.796875 L 12.828125 0 L 9.109375 0 L 9.109375 -6.8125 C 9.109375 -8.5 8.445312 -9.34375 7.125 -9.34375 Z M 7.125 -9.34375 "/></g></g></g><g fill="#0084d1" fill-opacity="1"><g transform="translate(87.055737, 19.233872)"><g><path d="M 7.234375 -2.71875 C 7.734375 -2.71875 8.15625 -2.8125 8.5 -3 C 8.851562 -3.1875 9.1875 -3.484375 9.5 -3.890625 L 13.296875 -3.890625 C 12.703125 -2.535156 11.867188 -1.476562 10.796875 -0.71875 C 9.734375 0.03125 8.546875 0.40625 7.234375 0.40625 C 6.054688 0.40625 4.960938 0.113281 3.953125 -0.46875 C 2.953125 -1.050781 2.15625 -1.84375 1.5625 -2.84375 C 0.96875 -3.851562 0.671875 -4.960938 0.671875 -6.171875 C 0.671875 -7.347656 0.957031 -8.445312 1.53125 -9.46875 C 2.113281 -10.488281 2.898438 -11.300781 3.890625 -11.90625 C 4.890625 -12.519531 5.984375 -12.828125 7.171875 -12.828125 C 8.390625 -12.828125 9.5 -12.523438 10.5 -11.921875 C 11.5 -11.328125 12.285156 -10.515625 12.859375 -9.484375 C 13.429688 -8.460938 13.71875 -7.320312 13.71875 -6.0625 C 13.71875 -5.695312 13.6875 -5.367188 13.625 -5.078125 L 4.328125 -5.078125 C 4.429688 -4.367188 4.75 -3.796875 5.28125 -3.359375 C 5.820312 -2.929688 6.472656 -2.71875 7.234375 -2.71875 Z M 7.171875 -9.703125 C 6.484375 -9.703125 5.882812 -9.507812 5.375 -9.125 C 4.863281 -8.75 4.53125 -8.234375 4.375 -7.578125 L 10.015625 -7.578125 C 9.859375 -8.210938 9.523438 -8.722656 9.015625 -9.109375 C 8.503906 -9.503906 7.890625 -9.703125 7.171875 -9.703125 Z M 7.171875 -9.703125 "/></g></g></g><g fill="#0084d1" fill-opacity="1"><g transform="translate(101.047616, 19.233872)"><g><path d="M 6.453125 -7.484375 C 7.898438 -7.484375 9.039062 -7.820312 9.875 -8.5 C 10.707031 -9.175781 11.125 -10.085938 11.125 -11.234375 C 11.125 -11.847656 10.976562 -12.4375 10.6875 -13 C 10.394531 -13.570312 9.894531 -14.050781 9.1875 -14.4375 C 8.488281 -14.832031 7.550781 -15.03125 6.375 -15.03125 L 3.21875 -15.03125 L 3.21875 0 L 1.5625 0 L 1.5625 -16.53125 L 6.546875 -16.53125 C 7.921875 -16.53125 9.078125 -16.285156 10.015625 -15.796875 C 10.953125 -15.316406 11.644531 -14.671875 12.09375 -13.859375 C 12.550781 -13.046875 12.78125 -12.15625 12.78125 -11.1875 C 12.78125 -10.3125 12.570312 -9.5 12.15625 -8.75 C 11.738281 -8.007812 11.15625 -7.410156 10.40625 -6.953125 C 9.664062 -6.503906 8.816406 -6.242188 7.859375 -6.171875 L 12.53125 0 L 10.453125 0 L 4.84375 -7.484375 Z M 6.453125 -7.484375 "/></g></g></g><g fill="#0084d1" fill-opacity="1"><g transform="translate(114.16168, 19.233872)"><g><path d="M 12.265625 -2.140625 C 11.753906 -1.378906 11.082031 -0.78125 10.25 -0.34375 C 9.414062 0.0820312 8.5 0.296875 7.5 0.296875 C 6.300781 0.296875 5.195312 0.015625 4.1875 -0.546875 C 3.1875 -1.117188 2.394531 -1.890625 1.8125 -2.859375 C 1.226562 -3.835938 0.9375 -4.929688 0.9375 -6.140625 C 0.9375 -7.335938 1.234375 -8.421875 1.828125 -9.390625 C 2.421875 -10.367188 3.222656 -11.132812 4.234375 -11.6875 C 5.242188 -12.25 6.332031 -12.53125 7.5 -12.53125 C 8.519531 -12.53125 9.445312 -12.3125 10.28125 -11.875 C 11.113281 -11.445312 11.773438 -10.847656 12.265625 -10.078125 L 12.3125 -10.078125 L 12.3125 -12.21875 L 13.875 -12.21875 L 13.875 0 L 12.3125 0 L 12.3125 -2.140625 Z M 12.40625 -6.09375 C 12.40625 -6.988281 12.1875 -7.820312 11.75 -8.59375 C 11.320312 -9.375 10.726562 -9.988281 9.96875 -10.4375 C 9.21875 -10.894531 8.390625 -11.125 7.484375 -11.125 C 6.554688 -11.125 5.710938 -10.90625 4.953125 -10.46875 C 4.203125 -10.03125 3.601562 -9.425781 3.15625 -8.65625 C 2.71875 -7.882812 2.5 -7.023438 2.5 -6.078125 C 2.5 -5.148438 2.710938 -4.304688 3.140625 -3.546875 C 3.578125 -2.785156 4.175781 -2.1875 4.9375 -1.75 C 5.707031 -1.320312 6.5625 -1.109375 7.5 -1.109375 C 8.394531 -1.109375 9.210938 -1.332031 9.953125 -1.78125 C 10.703125 -2.226562 11.296875 -2.832031 11.734375 -3.59375 C 12.179688 -4.351562 12.40625 -5.1875 12.40625 -6.09375 Z M 12.40625 -6.09375 "/></g></g></g><g fill="#0084d1" fill-opacity="1"><g transform="translate(128.973674, 19.233872)"><g><path d="M 1.828125 -12.21875 L 6.140625 -1.9375 L 10.53125 -12.21875 L 12.203125 -12.21875 L 7.03125 0 L 5.3125 0 L 0.15625 -12.21875 Z M 1.828125 -12.21875 "/></g></g></g><g fill="#0084d1" fill-opacity="1"><g transform="translate(140.90365, 19.233872)"><g><path d="M 7.1875 -1.109375 C 8.15625 -1.109375 9.046875 -1.367188 9.859375 -1.890625 C 10.671875 -2.421875 11.242188 -3.125 11.578125 -4 L 13.234375 -4 C 12.765625 -2.707031 11.972656 -1.664062 10.859375 -0.875 C 9.753906 -0.09375 8.539062 0.296875 7.21875 0.296875 C 6.070312 0.296875 5.007812 0.015625 4.03125 -0.546875 C 3.050781 -1.117188 2.273438 -1.894531 1.703125 -2.875 C 1.128906 -3.863281 0.84375 -4.9375 0.84375 -6.09375 C 0.84375 -7.257812 1.132812 -8.332031 1.71875 -9.3125 C 2.300781 -10.300781 3.078125 -11.082031 4.046875 -11.65625 C 5.023438 -12.238281 6.070312 -12.53125 7.1875 -12.53125 C 8.382812 -12.53125 9.46875 -12.222656 10.4375 -11.609375 C 11.414062 -11.003906 12.1875 -10.195312 12.75 -9.1875 C 13.320312 -8.1875 13.609375 -7.128906 13.609375 -6.015625 L 13.578125 -5.546875 L 2.453125 -5.546875 C 2.503906 -4.753906 2.753906 -4.019531 3.203125 -3.34375 C 3.660156 -2.664062 4.242188 -2.125 4.953125 -1.71875 C 5.671875 -1.3125 6.414062 -1.109375 7.1875 -1.109375 Z M 7.1875 -11.125 C 6.4375 -11.125 5.722656 -10.945312 5.046875 -10.59375 C 4.378906 -10.25 3.8125 -9.757812 3.34375 -9.125 C 2.882812 -8.488281 2.585938 -7.765625 2.453125 -6.953125 L 12 -6.953125 C 11.769531 -8.179688 11.210938 -9.179688 10.328125 -9.953125 C 9.441406 -10.734375 8.394531 -11.125 7.1875 -11.125 Z M 7.1875 -11.125 "/></g></g></g><g fill="#0084d1" fill-opacity="1"><g transform="translate(154.978387, 19.233872)"><g><path d="M 6.84375 -11.125 C 5.675781 -11.125 4.742188 -10.726562 4.046875 -9.9375 C 3.359375 -9.15625 3.015625 -8.148438 3.015625 -6.921875 L 3.015625 0 L 1.453125 0 L 1.453125 -12.21875 L 3.015625 -12.21875 L 3.015625 -10.65625 L 3.0625 -10.65625 C 3.445312 -11.25 3.96875 -11.707031 4.625 -12.03125 C 5.289062 -12.363281 6.019531 -12.53125 6.8125 -12.53125 C 7.914062 -12.53125 8.875 -12.289062 9.6875 -11.8125 C 10.5 -11.34375 11.117188 -10.675781 11.546875 -9.8125 C 11.984375 -8.945312 12.203125 -7.945312 12.203125 -6.8125 L 12.203125 0 L 10.640625 0 L 10.640625 -6.8125 C 10.640625 -7.707031 10.472656 -8.476562 10.140625 -9.125 C 9.816406 -9.769531 9.363281 -10.265625 8.78125 -10.609375 C 8.195312 -10.953125 7.550781 -11.125 6.84375 -11.125 Z M 6.84375 -11.125 "/></g></g></g></svg>